<mxfile host="app.diagrams.net" modified="2020-11-05T08:16:35.118Z" agent="5.0 (Windows NT 10.0; Win64; x64) AppleWebKit/537.36 (KHTML, like Gecko) Chrome/86.0.4240.183 Safari/537.36" etag="YRaPdSHuDnlyt1G_M_7j" version="13.9.1" type="github">
  <diagram id="31b32b95-0358-9bc7-6ba0-a27c054ed1a7" name="Page-1">
    <mxGraphModel dx="1248" dy="677" grid="1" gridSize="10" guides="1" tooltips="1" connect="1" arrows="1" fold="1" page="1" pageScale="1" pageWidth="827" pageHeight="1169" background="#ffffff" math="0" shadow="0">
      <root>
        <mxCell id="0" />
        <mxCell id="1" parent="0" />
        <mxCell id="2" value="" style="swimlane;shadow=0;strokeColor=#4277BB;fillColor=#ffffff;fontColor=#4277BB;align=right;startSize=0;collapsible=0;strokeWidth=3;" parent="1" vertex="1">
          <mxGeometry x="180" y="120" width="1050" height="659" as="geometry" />
        </mxCell>
        <mxCell id="4" value="" style="line;strokeWidth=3;direction=south;html=1;shadow=0;labelBackgroundColor=none;fillColor=none;gradientColor=none;fontSize=12;fontColor=#4277BB;align=right;strokeColor=#4277BB;" parent="2" vertex="1">
          <mxGeometry x="391" width="10" height="220" as="geometry" />
        </mxCell>
        <mxCell id="6" value="Application component" style="rounded=0;html=1;shadow=0;labelBackgroundColor=none;strokeWidth=2;fontSize=12;align=left;labelPosition=right;verticalLabelPosition=middle;verticalAlign=middle;spacingLeft=5;" parent="2" vertex="1">
          <mxGeometry x="10" y="497" width="20" height="10" as="geometry" />
        </mxCell>
        <mxCell id="7" value="Infrastructure services" style="rounded=0;html=1;shadow=0;labelBackgroundColor=none;strokeColor=none;strokeWidth=2;fillColor=#8DC642;gradientColor=none;fontSize=12;fontColor=#4277BB;align=left;labelPosition=right;verticalLabelPosition=middle;verticalAlign=middle;spacingLeft=5;" parent="2" vertex="1">
          <mxGeometry x="10" y="517" width="20" height="10" as="geometry" />
        </mxCell>
        <mxCell id="8" value="Management" style="rounded=0;html=1;shadow=0;labelBackgroundColor=none;strokeColor=none;strokeWidth=2;fillColor=#0DB39D;gradientColor=none;fontSize=12;fontColor=#4277BB;align=left;labelPosition=right;verticalLabelPosition=middle;verticalAlign=middle;spacingLeft=5;" parent="2" vertex="1">
          <mxGeometry x="10" y="537" width="20" height="10" as="geometry" />
        </mxCell>
        <mxCell id="9" value="Data store" style="rounded=0;html=1;shadow=0;labelBackgroundColor=none;strokeColor=none;strokeWidth=2;fillColor=#335D81;gradientColor=none;fontSize=12;fontColor=#4277BB;align=left;labelPosition=right;verticalLabelPosition=middle;verticalAlign=middle;spacingLeft=5;" parent="2" vertex="1">
          <mxGeometry x="10" y="557" width="20" height="10" as="geometry" />
        </mxCell>
        <mxCell id="10" value="Analytics" style="rounded=0;html=1;shadow=0;labelBackgroundColor=none;strokeColor=none;strokeWidth=2;fillColor=#744399;gradientColor=none;fontSize=12;fontColor=#4277BB;align=left;labelPosition=right;verticalLabelPosition=middle;verticalAlign=middle;spacingLeft=5;" parent="2" vertex="1">
          <mxGeometry x="10" y="577" width="20" height="10" as="geometry" />
        </mxCell>
        <mxCell id="11" value="Device capabilities" style="rounded=0;html=1;shadow=0;labelBackgroundColor=none;strokeColor=none;strokeWidth=2;fillColor=#A72870;gradientColor=none;fontSize=12;fontColor=#4277BB;align=left;labelPosition=right;verticalLabelPosition=middle;verticalAlign=middle;spacingLeft=5;" parent="2" vertex="1">
          <mxGeometry x="10" y="597" width="20" height="10" as="geometry" />
        </mxCell>
        <mxCell id="12" value="Security" style="rounded=0;html=1;shadow=0;labelBackgroundColor=none;strokeColor=none;strokeWidth=2;fillColor=#E52134;gradientColor=none;fontSize=12;fontColor=#4277BB;align=left;labelPosition=right;verticalLabelPosition=middle;verticalAlign=middle;spacingLeft=5;" parent="2" vertex="1">
          <mxGeometry x="10" y="617" width="20" height="10" as="geometry" />
        </mxCell>
        <mxCell id="13" value="LEGEND" style="text;html=1;align=left;verticalAlign=middle;fontColor=#4277BB;shadow=0;dashed=0;strokeColor=none;fillColor=none;labelBackgroundColor=none;fontStyle=1;fontSize=14;spacingLeft=0;" parent="2" vertex="1">
          <mxGeometry x="10" y="467" width="150" height="20" as="geometry" />
        </mxCell>
        <mxCell id="14" value="Users" style="rounded=0;html=1;shadow=0;labelBackgroundColor=none;strokeColor=none;strokeWidth=2;fillColor=#C2952D;gradientColor=none;fontSize=12;fontColor=#4277BB;align=left;labelPosition=right;verticalLabelPosition=middle;verticalAlign=middle;spacingLeft=5;" parent="2" vertex="1">
          <mxGeometry x="10" y="637" width="20" height="10" as="geometry" />
        </mxCell>
        <mxCell id="16" value="" style="line;strokeWidth=3;direction=south;html=1;shadow=0;labelBackgroundColor=none;fillColor=none;gradientColor=none;fontSize=12;fontColor=#4277BB;align=right;strokeColor=#4277BB;" parent="2" vertex="1">
          <mxGeometry x="391" y="430" width="10" height="229" as="geometry" />
        </mxCell>
        <mxCell id="20" value="USER" style="aspect=fixed;perimeter=ellipsePerimeter;html=1;align=center;shadow=0;dashed=0;image;image=img/lib/ibm/users/user.svg;labelBackgroundColor=#ffffff;strokeColor=#666666;strokeWidth=3;fillColor=#C2952D;gradientColor=none;fontSize=12;fontColor=#4277BB;" parent="2" vertex="1">
          <mxGeometry x="20" y="325" width="60" height="60" as="geometry" />
        </mxCell>
        <mxCell id="21" style="rounded=0;html=1;labelBackgroundColor=#ffffff;startArrow=classic;startFill=1;startSize=4;endArrow=classic;endFill=1;endSize=4;jettySize=auto;orthogonalLoop=1;strokeColor=#4378BB;strokeWidth=2;fontSize=19;fontColor=#CC99FF;exitX=1;exitY=0.5;exitDx=0;exitDy=0;entryX=-0.015;entryY=0.714;entryDx=0;entryDy=0;entryPerimeter=0;" parent="2" source="20" edge="1" target="bHijceM4AnhrFQvCDv7R-177">
          <mxGeometry relative="1" as="geometry">
            <mxPoint x="135" y="296" as="targetPoint" />
          </mxGeometry>
        </mxCell>
        <mxCell id="22" value="MOBILE" style="aspect=fixed;perimeter=ellipsePerimeter;html=1;align=center;shadow=0;dashed=0;image;image=img/lib/ibm/users/device.svg;labelBackgroundColor=#ffffff;strokeColor=#666666;strokeWidth=3;fillColor=#C2952D;gradientColor=none;fontSize=12;fontColor=#4277BB;" parent="2" vertex="1">
          <mxGeometry x="20" y="234" width="60" height="60" as="geometry" />
        </mxCell>
        <mxCell id="29" value="" style="swimlane;shadow=0;strokeColor=#4277BB;fillColor=#ffffff;fontColor=#4277BB;align=right;startSize=0;collapsible=0;strokeWidth=3;" parent="2" vertex="1">
          <mxGeometry x="498" y="29" width="516" height="141" as="geometry" />
        </mxCell>
        <mxCell id="30" value="COLLABORATIVE&lt;div&gt;DEVELOPMENT&lt;/div&gt;" style="aspect=fixed;perimeter=ellipsePerimeter;html=1;align=center;shadow=0;dashed=0;image;image=img/lib/ibm/devops/collaborative_development.svg;labelBackgroundColor=#ffffff;strokeColor=#666666;strokeWidth=3;fillColor=#C2952D;gradientColor=none;fontSize=12;fontColor=#4277BB;&#xa;&#xa;shape=mxgraph.weblogos.github" parent="29" vertex="1">
          <mxGeometry x="34" y="32" width="60" height="60" as="geometry" />
        </mxCell>
        <mxCell id="31" value="CONTINUOUS&lt;div&gt;DEPLOY&lt;/div&gt;" style="aspect=fixed;perimeter=ellipsePerimeter;html=1;align=center;shadow=0;dashed=0;image;image=img/lib/ibm/devops/continuous_deploy.svg;labelBackgroundColor=#ffffff;strokeColor=#666666;strokeWidth=3;fillColor=#C2952D;gradientColor=none;fontSize=12;fontColor=#4277BB;" parent="29" vertex="1">
          <mxGeometry x="162" y="32" width="60" height="60" as="geometry" />
        </mxCell>
        <mxCell id="32" value="DEPENDENCY&lt;br&gt;MANAGEMENT" style="aspect=fixed;perimeter=ellipsePerimeter;html=1;align=center;shadow=0;dashed=0;image;image=img/lib/ibm/devops/configuration_management.svg;labelBackgroundColor=#ffffff;strokeColor=#666666;strokeWidth=3;fillColor=#C2952D;gradientColor=none;fontSize=12;fontColor=#4277BB;" parent="29" vertex="1">
          <mxGeometry x="289" y="32" width="60" height="60" as="geometry" />
        </mxCell>
        <mxCell id="33" value="CONTINUOUS&lt;div&gt;TESTING&lt;/div&gt;" style="aspect=fixed;perimeter=ellipsePerimeter;html=1;align=center;shadow=0;dashed=0;image;image=img/lib/ibm/devops/continuous_testing.svg;labelBackgroundColor=#ffffff;strokeColor=#666666;strokeWidth=3;fillColor=#C2952D;gradientColor=none;fontSize=12;fontColor=#4277BB;" parent="29" vertex="1">
          <mxGeometry x="417" y="32" width="60" height="60" as="geometry" />
        </mxCell>
        <mxCell id="34" value="&lt;b&gt;DevOps&lt;/b&gt;" style="text;html=1;align=left;verticalAlign=top;fontColor=#4277BB;shadow=0;dashed=0;strokeColor=none;fillColor=none;labelBackgroundColor=none;fontStyle=0;fontSize=14;spacingLeft=5;" parent="29" vertex="1">
          <mxGeometry width="90" height="26" as="geometry" />
        </mxCell>
        <mxCell id="tF901fyGYfo_4YfBg2au-109" value="" style="dashed=0;outlineConnect=0;html=1;align=center;labelPosition=center;verticalLabelPosition=bottom;verticalAlign=top;shape=mxgraph.weblogos.github;color=orange" parent="29" vertex="1">
          <mxGeometry x="76" y="70" width="25.5" height="22" as="geometry" />
        </mxCell>
        <mxCell id="bHijceM4AnhrFQvCDv7R-94" value="" style="shape=image;imageAspect=0;aspect=fixed;verticalLabelPosition=bottom;verticalAlign=top;strokeColor=#6762A6;strokeWidth=3;fillColor=#FFFFFF;image=https://upload.wikimedia.org/wikipedia/commons/thumb/0/0b/Maven_logo.svg/340px-Maven_logo.svg.png;" vertex="1" parent="29">
          <mxGeometry x="318" y="76.62" width="60.82" height="15.38" as="geometry" />
        </mxCell>
        <mxCell id="bHijceM4AnhrFQvCDv7R-170" value="" style="dashed=0;outlineConnect=0;html=1;align=center;labelPosition=center;verticalLabelPosition=bottom;verticalAlign=top;shape=mxgraph.weblogos.github;color=orange" vertex="1" parent="29">
          <mxGeometry x="206" y="70" width="25.5" height="22" as="geometry" />
        </mxCell>
        <mxCell id="bHijceM4AnhrFQvCDv7R-173" value="" style="shape=image;imageAspect=0;aspect=fixed;verticalLabelPosition=bottom;verticalAlign=top;rounded=1;shadow=0;glass=0;sketch=0;strokeColor=#6762A6;strokeWidth=3;fillColor=#FFFFFF;fontSize=12;image=https://upload.wikimedia.org/wikipedia/commons/thumb/d/db/Npm-logo.svg/220px-Npm-logo.svg.png;" vertex="1" parent="29">
          <mxGeometry x="276" y="77.92999999999999" width="36" height="14.07" as="geometry" />
        </mxCell>
        <mxCell id="35" value="" style="swimlane;shadow=0;strokeColor=#4277BB;fillColor=#ffffff;fontColor=#4277BB;align=right;startSize=0;collapsible=0;strokeWidth=3;" parent="2" vertex="1">
          <mxGeometry x="498" y="196" width="516" height="241" as="geometry" />
        </mxCell>
        <mxCell id="52" value="&lt;b&gt;CLOUD RUNTIME SERVICES&lt;/b&gt;" style="text;html=1;align=left;verticalAlign=top;fontColor=#4277BB;shadow=0;dashed=0;strokeColor=none;fillColor=none;labelBackgroundColor=none;fontStyle=0;fontSize=14;spacingLeft=5;" parent="35" vertex="1">
          <mxGeometry x="2" width="231" height="24" as="geometry" />
        </mxCell>
        <mxCell id="bHijceM4AnhrFQvCDv7R-164" value="" style="group" vertex="1" connectable="0" parent="35">
          <mxGeometry x="347" y="40" width="130" height="125" as="geometry" />
        </mxCell>
        <mxCell id="bHijceM4AnhrFQvCDv7R-105" value="&lt;font color=&quot;#000000&quot; style=&quot;font-size: 12px&quot;&gt;&lt;b&gt;Spring Boot&lt;br&gt;Game Engine&lt;/b&gt;&lt;br&gt;&lt;/font&gt;" style="whiteSpace=wrap;html=1;fontColor=#ffffff;fillColor=#c9c3e6;strokeWidth=4;strokeColor=#6762a6;verticalAlign=top;verticalLabelPosition=bottom;rounded=1;sketch=0;shadow=0;glass=0;labelPosition=center;align=center;" vertex="1" parent="bHijceM4AnhrFQvCDv7R-164">
          <mxGeometry width="130" height="125" as="geometry" />
        </mxCell>
        <mxCell id="bHijceM4AnhrFQvCDv7R-107" value="" style="shape=image;imageAspect=0;aspect=fixed;verticalLabelPosition=bottom;verticalAlign=top;strokeColor=#6762A6;strokeWidth=3;fillColor=#FFFFFF;image=https://upload.wikimedia.org/wikipedia/zh/thumb/e/ec/Heroku_logo.svg/1920px-Heroku_logo.svg.png;" vertex="1" parent="bHijceM4AnhrFQvCDv7R-164">
          <mxGeometry x="4.889999999999986" y="1" width="120.23" height="40" as="geometry" />
        </mxCell>
        <mxCell id="bHijceM4AnhrFQvCDv7R-139" value="" style="group" vertex="1" connectable="0" parent="bHijceM4AnhrFQvCDv7R-164">
          <mxGeometry x="19.25" y="32" width="91.5" height="91.5" as="geometry" />
        </mxCell>
        <mxCell id="bHijceM4AnhrFQvCDv7R-108" value="" style="ellipse;whiteSpace=wrap;html=1;aspect=fixed;strokeWidth=3;fontColor=#ffffff;strokeColor=#6762A6;fillColor=#FFFFFF;labelPosition=center;verticalLabelPosition=bottom;align=center;verticalAlign=top;" vertex="1" parent="bHijceM4AnhrFQvCDv7R-139">
          <mxGeometry x="5.750000000000227" y="5.75" width="80" height="80" as="geometry" />
        </mxCell>
        <mxCell id="bHijceM4AnhrFQvCDv7R-110" value="" style="ellipse;whiteSpace=wrap;html=1;aspect=fixed;strokeColor=#d6b656;fillColor=#fff2cc;verticalAlign=top;verticalLabelPosition=bottom;image;image=https://images.g2crowd.com/uploads/product/image/social_landscape/social_landscape_9d63a0ed04b871d3dacc8647b7f0927d/spring-boot.png;labelBackgroundColor=none;" vertex="1" parent="bHijceM4AnhrFQvCDv7R-139">
          <mxGeometry width="91.5" height="91.5" as="geometry" />
        </mxCell>
        <mxCell id="bHijceM4AnhrFQvCDv7R-162" value="E" style="group" vertex="1" connectable="0" parent="35">
          <mxGeometry x="37" y="40" width="130" height="125" as="geometry" />
        </mxCell>
        <mxCell id="bHijceM4AnhrFQvCDv7R-155" value="&lt;font color=&quot;#000000&quot; style=&quot;font-size: 12px&quot;&gt;&lt;b&gt;Eureka Server&lt;br&gt;Service Registry&lt;/b&gt;&lt;br&gt;&lt;/font&gt;" style="whiteSpace=wrap;html=1;fontColor=#ffffff;fillColor=#c9c3e6;strokeWidth=4;strokeColor=#6762a6;verticalAlign=top;verticalLabelPosition=bottom;rounded=1;sketch=0;shadow=0;glass=0;labelPosition=center;align=center;" vertex="1" parent="bHijceM4AnhrFQvCDv7R-162">
          <mxGeometry width="130" height="125" as="geometry" />
        </mxCell>
        <mxCell id="bHijceM4AnhrFQvCDv7R-156" value="" style="shape=image;imageAspect=0;aspect=fixed;verticalLabelPosition=bottom;verticalAlign=top;strokeColor=#6762A6;strokeWidth=3;fillColor=#FFFFFF;image=https://upload.wikimedia.org/wikipedia/zh/thumb/e/ec/Heroku_logo.svg/1920px-Heroku_logo.svg.png;" vertex="1" parent="bHijceM4AnhrFQvCDv7R-162">
          <mxGeometry x="5.889999999999873" y="1" width="120.23" height="40" as="geometry" />
        </mxCell>
        <mxCell id="bHijceM4AnhrFQvCDv7R-157" value="" style="group" vertex="1" connectable="0" parent="bHijceM4AnhrFQvCDv7R-162">
          <mxGeometry x="25" y="37.75" width="80" height="80" as="geometry" />
        </mxCell>
        <mxCell id="bHijceM4AnhrFQvCDv7R-158" value="" style="ellipse;whiteSpace=wrap;html=1;aspect=fixed;strokeWidth=3;fontColor=#ffffff;strokeColor=#6762A6;fillColor=#FFFFFF;verticalAlign=top;labelPosition=center;verticalLabelPosition=bottom;align=center;" vertex="1" parent="bHijceM4AnhrFQvCDv7R-157">
          <mxGeometry width="80" height="80" as="geometry" />
        </mxCell>
        <mxCell id="bHijceM4AnhrFQvCDv7R-159" value="" style="shape=image;imageAspect=0;aspect=fixed;verticalLabelPosition=bottom;verticalAlign=top;rounded=1;shadow=0;glass=0;sketch=0;strokeColor=#6762A6;strokeWidth=3;fillColor=#FFFFFF;fontSize=12;image=https://encrypted-tbn0.gstatic.com/images?q=tbn%3AANd9GcQhia9kPZoeVXGHJMcQI6JtRrfWYQl6o4QzBA&amp;usqp=CAU;" vertex="1" parent="bHijceM4AnhrFQvCDv7R-157">
          <mxGeometry x="13.939999999999827" y="13.930000000000064" width="52.14" height="52.14" as="geometry" />
        </mxCell>
        <mxCell id="bHijceM4AnhrFQvCDv7R-165" value="" style="group" vertex="1" connectable="0" parent="35">
          <mxGeometry x="192" y="40" width="130" height="125" as="geometry" />
        </mxCell>
        <mxCell id="bHijceM4AnhrFQvCDv7R-143" value="&lt;font color=&quot;#000000&quot; style=&quot;font-size: 12px&quot;&gt;&lt;b&gt;Spring Boot PostgreSQL&lt;br&gt;A.I. Compiler&lt;/b&gt;&lt;br&gt;&lt;/font&gt;" style="whiteSpace=wrap;html=1;fontColor=#ffffff;fillColor=#c9c3e6;strokeWidth=4;strokeColor=#6762a6;verticalAlign=top;verticalLabelPosition=bottom;rounded=1;sketch=0;shadow=0;glass=0;labelPosition=center;align=center;" vertex="1" parent="bHijceM4AnhrFQvCDv7R-165">
          <mxGeometry width="130" height="125" as="geometry" />
        </mxCell>
        <mxCell id="bHijceM4AnhrFQvCDv7R-144" value="" style="shape=image;imageAspect=0;aspect=fixed;verticalLabelPosition=bottom;verticalAlign=top;strokeColor=#6762A6;strokeWidth=3;fillColor=#FFFFFF;image=https://upload.wikimedia.org/wikipedia/zh/thumb/e/ec/Heroku_logo.svg/1920px-Heroku_logo.svg.png;" vertex="1" parent="bHijceM4AnhrFQvCDv7R-165">
          <mxGeometry x="4.889999999999986" y="1" width="120.23" height="40" as="geometry" />
        </mxCell>
        <mxCell id="bHijceM4AnhrFQvCDv7R-148" value="" style="group" vertex="1" connectable="0" parent="bHijceM4AnhrFQvCDv7R-165">
          <mxGeometry x="19.25" y="32" width="110.75" height="91.5" as="geometry" />
        </mxCell>
        <mxCell id="bHijceM4AnhrFQvCDv7R-146" value="" style="ellipse;whiteSpace=wrap;html=1;aspect=fixed;strokeWidth=3;fontColor=#ffffff;strokeColor=#6762A6;fillColor=#FFFFFF;labelPosition=center;verticalLabelPosition=bottom;align=center;verticalAlign=top;" vertex="1" parent="bHijceM4AnhrFQvCDv7R-148">
          <mxGeometry x="5.750000000000227" y="5.75" width="80" height="80" as="geometry" />
        </mxCell>
        <mxCell id="bHijceM4AnhrFQvCDv7R-147" value="" style="ellipse;whiteSpace=wrap;html=1;aspect=fixed;strokeColor=#d6b656;fillColor=#fff2cc;verticalAlign=top;verticalLabelPosition=bottom;image;image=https://images.g2crowd.com/uploads/product/image/social_landscape/social_landscape_9d63a0ed04b871d3dacc8647b7f0927d/spring-boot.png;labelBackgroundColor=none;" vertex="1" parent="bHijceM4AnhrFQvCDv7R-148">
          <mxGeometry width="91.5" height="91.5" as="geometry" />
        </mxCell>
        <mxCell id="tF901fyGYfo_4YfBg2au-115" value="" style="shape=image;html=1;verticalAlign=top;verticalLabelPosition=bottom;labelBackgroundColor=#ffffff;image=https://upload.wikimedia.org/wikipedia/commons/thumb/b/ba/Database-postgres.svg/424px-Database-postgres.svg.png;labelBackgroundColor=none;" parent="bHijceM4AnhrFQvCDv7R-148" vertex="1">
          <mxGeometry x="50.75" y="45" width="60" height="51.5" as="geometry" />
        </mxCell>
        <mxCell id="55" value="" style="swimlane;shadow=0;strokeColor=#4277BB;fillColor=#ffffff;fontColor=#4277BB;align=right;startSize=0;collapsible=0;strokeWidth=3;" parent="2" vertex="1">
          <mxGeometry x="498" y="470" width="516" height="164" as="geometry" />
        </mxCell>
        <mxCell id="56" value="MONITORING &amp;amp;&lt;div&gt;LOGGING&lt;/div&gt;" style="aspect=fixed;perimeter=ellipsePerimeter;html=1;align=center;shadow=0;dashed=0;image;image=img/lib/ibm/infrastructure/monitoring_logging.svg;labelBackgroundColor=none;strokeColor=#666666;strokeWidth=3;fillColor=#C2952D;gradientColor=none;fontSize=12;fontColor=#4277BB;" parent="55" vertex="1">
          <mxGeometry x="34" y="44" width="60" height="60" as="geometry" />
        </mxCell>
        <mxCell id="60" value="&lt;b&gt;HEROKU INFRASTRUCTURE SERVICES&lt;/b&gt;" style="text;html=1;align=left;verticalAlign=top;fontColor=#4277BB;shadow=0;dashed=0;strokeColor=none;fillColor=none;labelBackgroundColor=none;fontStyle=0;fontSize=14;spacingLeft=5;" parent="55" vertex="1">
          <mxGeometry x="1" width="231" height="24" as="geometry" />
        </mxCell>
        <mxCell id="18" value="CLOUD SECURITY" style="aspect=fixed;perimeter=ellipsePerimeter;html=1;align=center;shadow=0;dashed=0;image;image=img/lib/ibm/blockchain/certificate_authority.svg;labelBackgroundColor=#ffffff;strokeColor=#666666;strokeWidth=3;fillColor=#C2952D;gradientColor=none;fontSize=12;fontColor=#4277BB;labelPosition=center;verticalLabelPosition=bottom;verticalAlign=top;" parent="55" vertex="1">
          <mxGeometry x="159" y="44" width="60" height="60" as="geometry" />
        </mxCell>
        <mxCell id="bHijceM4AnhrFQvCDv7R-163" value="" style="group" vertex="1" connectable="0" parent="2">
          <mxGeometry x="331" y="254" width="130" height="125" as="geometry" />
        </mxCell>
        <mxCell id="bHijceM4AnhrFQvCDv7R-122" value="&lt;font color=&quot;#000000&quot; style=&quot;font-size: 12px&quot;&gt;&lt;b&gt;Zuul Proxy&lt;br&gt;API Gateway&lt;/b&gt;&lt;br&gt;&lt;/font&gt;" style="whiteSpace=wrap;html=1;fontColor=#ffffff;fillColor=#c9c3e6;strokeWidth=4;strokeColor=#6762a6;verticalAlign=top;verticalLabelPosition=bottom;rounded=1;sketch=0;shadow=0;glass=0;labelPosition=center;align=center;" vertex="1" parent="bHijceM4AnhrFQvCDv7R-163">
          <mxGeometry width="130" height="125" as="geometry" />
        </mxCell>
        <mxCell id="bHijceM4AnhrFQvCDv7R-123" value="" style="shape=image;imageAspect=0;aspect=fixed;verticalLabelPosition=bottom;verticalAlign=top;strokeColor=#6762A6;strokeWidth=3;fillColor=#FFFFFF;image=https://upload.wikimedia.org/wikipedia/zh/thumb/e/ec/Heroku_logo.svg/1920px-Heroku_logo.svg.png;" vertex="1" parent="bHijceM4AnhrFQvCDv7R-163">
          <mxGeometry x="5.889999999999873" y="1" width="120.23" height="40" as="geometry" />
        </mxCell>
        <mxCell id="bHijceM4AnhrFQvCDv7R-140" value="" style="group" vertex="1" connectable="0" parent="bHijceM4AnhrFQvCDv7R-163">
          <mxGeometry x="25" y="37.75" width="80" height="80" as="geometry" />
        </mxCell>
        <mxCell id="bHijceM4AnhrFQvCDv7R-125" value="" style="ellipse;whiteSpace=wrap;html=1;aspect=fixed;strokeWidth=3;fontColor=#ffffff;strokeColor=#6762A6;fillColor=#FFFFFF;verticalAlign=top;labelPosition=center;verticalLabelPosition=bottom;align=center;" vertex="1" parent="bHijceM4AnhrFQvCDv7R-140">
          <mxGeometry width="80" height="80" as="geometry" />
        </mxCell>
        <mxCell id="bHijceM4AnhrFQvCDv7R-130" value="" style="shape=image;imageAspect=0;aspect=fixed;verticalLabelPosition=bottom;verticalAlign=top;rounded=1;shadow=0;glass=0;sketch=0;strokeColor=#6762A6;strokeWidth=3;fillColor=#FFFFFF;fontSize=12;image=https://encrypted-tbn0.gstatic.com/images?q=tbn%3AANd9GcQhia9kPZoeVXGHJMcQI6JtRrfWYQl6o4QzBA&amp;usqp=CAU;" vertex="1" parent="bHijceM4AnhrFQvCDv7R-140">
          <mxGeometry x="13.939999999999827" y="13.930000000000064" width="52.14" height="52.14" as="geometry" />
        </mxCell>
        <mxCell id="bHijceM4AnhrFQvCDv7R-176" value="" style="group" vertex="1" connectable="0" parent="2">
          <mxGeometry x="150" y="226.5" width="130" height="180" as="geometry" />
        </mxCell>
        <mxCell id="bHijceM4AnhrFQvCDv7R-177" value="&lt;font color=&quot;#000000&quot; style=&quot;font-size: 12px&quot;&gt;&lt;b&gt;Angular&lt;br&gt;Frontend&lt;/b&gt;&lt;br&gt;&lt;/font&gt;" style="whiteSpace=wrap;html=1;fontColor=#ffffff;fillColor=#c9c3e6;strokeWidth=4;strokeColor=#6762a6;verticalAlign=top;verticalLabelPosition=bottom;rounded=1;sketch=0;shadow=0;glass=0;labelPosition=center;align=center;" vertex="1" parent="bHijceM4AnhrFQvCDv7R-176">
          <mxGeometry width="130" height="180" as="geometry" />
        </mxCell>
        <mxCell id="bHijceM4AnhrFQvCDv7R-178" value="" style="shape=image;imageAspect=0;aspect=fixed;verticalLabelPosition=bottom;verticalAlign=top;strokeColor=#6762A6;strokeWidth=3;fillColor=#FFFFFF;image=https://upload.wikimedia.org/wikipedia/zh/thumb/e/ec/Heroku_logo.svg/1920px-Heroku_logo.svg.png;" vertex="1" parent="bHijceM4AnhrFQvCDv7R-176">
          <mxGeometry x="5.889999999999873" y="1" width="120.23" height="40" as="geometry" />
        </mxCell>
        <mxCell id="bHijceM4AnhrFQvCDv7R-179" value="" style="group" vertex="1" connectable="0" parent="bHijceM4AnhrFQvCDv7R-176">
          <mxGeometry x="25" y="37.75" width="80" height="80" as="geometry" />
        </mxCell>
        <mxCell id="bHijceM4AnhrFQvCDv7R-180" value="" style="ellipse;whiteSpace=wrap;html=1;aspect=fixed;strokeWidth=3;fontColor=#ffffff;strokeColor=#6762A6;fillColor=#FFFFFF;verticalAlign=top;labelPosition=center;verticalLabelPosition=bottom;align=center;" vertex="1" parent="bHijceM4AnhrFQvCDv7R-179">
          <mxGeometry width="80" height="80" as="geometry" />
        </mxCell>
        <mxCell id="bHijceM4AnhrFQvCDv7R-95" value="" style="shape=image;imageAspect=0;aspect=fixed;verticalLabelPosition=bottom;verticalAlign=top;strokeColor=#6762A6;strokeWidth=3;fillColor=#FFFFFF;image=https://upload.wikimedia.org/wikipedia/commons/thumb/c/cf/Angular_full_color_logo.svg/768px-Angular_full_color_logo.svg.png;" vertex="1" parent="bHijceM4AnhrFQvCDv7R-179">
          <mxGeometry x="6.25" y="6.25" width="67.5" height="67.5" as="geometry" />
        </mxCell>
        <mxCell id="bHijceM4AnhrFQvCDv7R-96" value="" style="shape=image;imageAspect=0;aspect=fixed;verticalLabelPosition=bottom;verticalAlign=top;strokeColor=#6762A6;strokeWidth=3;fillColor=#FFFFFF;image=https://upload.wikimedia.org/wikipedia/commons/thumb/b/b2/Bootstrap_logo.svg/768px-Bootstrap_logo.svg.png;" vertex="1" parent="bHijceM4AnhrFQvCDv7R-179">
          <mxGeometry x="49.5" y="52" width="15.25" height="15.25" as="geometry" />
        </mxCell>
        <mxCell id="bHijceM4AnhrFQvCDv7R-184" value="" style="group" vertex="1" connectable="0" parent="bHijceM4AnhrFQvCDv7R-176">
          <mxGeometry x="25" y="110" width="80" height="60" as="geometry" />
        </mxCell>
        <mxCell id="bHijceM4AnhrFQvCDv7R-182" value="" style="rounded=1;whiteSpace=wrap;html=1;shadow=0;glass=0;sketch=0;strokeColor=#6762A6;strokeWidth=3;fillColor=#FFFFFF;fontSize=12;" vertex="1" parent="bHijceM4AnhrFQvCDv7R-184">
          <mxGeometry width="80" height="60" as="geometry" />
        </mxCell>
        <mxCell id="bHijceM4AnhrFQvCDv7R-97" value="" style="shape=image;imageAspect=0;aspect=fixed;verticalLabelPosition=bottom;verticalAlign=top;strokeColor=#6762A6;strokeWidth=3;fillColor=#FFFFFF;image=https://upload.wikimedia.org/wikipedia/commons/thumb/d/d9/Node.js_logo.svg/1200px-Node.js_logo.svg.png;" vertex="1" parent="bHijceM4AnhrFQvCDv7R-184">
          <mxGeometry x="11.75" y="12.720000000000027" width="56.5" height="34.55" as="geometry" />
        </mxCell>
        <mxCell id="bHijceM4AnhrFQvCDv7R-187" style="rounded=0;comic=0;html=1;entryX=0;entryY=0.5;startArrow=classic;startFill=1;endArrow=classic;endFill=1;jettySize=auto;orthogonalLoop=1;strokeColor=#4378BB;strokeWidth=2;fontFamily=Helvetica;fontSize=19;fontColor=#CC99FF;endSize=4;startSize=4;entryDx=0;entryDy=0;exitX=1;exitY=0.5;exitDx=0;exitDy=0;" edge="1" parent="2" source="bHijceM4AnhrFQvCDv7R-177" target="bHijceM4AnhrFQvCDv7R-122">
          <mxGeometry relative="1" as="geometry">
            <mxPoint x="330.99718427000255" y="206.58359213500125" as="targetPoint" />
            <mxPoint x="290" y="319" as="sourcePoint" />
          </mxGeometry>
        </mxCell>
        <mxCell id="bHijceM4AnhrFQvCDv7R-190" style="rounded=0;html=1;labelBackgroundColor=#ffffff;startArrow=classic;startFill=1;startSize=4;endArrow=classic;endFill=1;endSize=4;jettySize=auto;orthogonalLoop=1;strokeColor=#4378BB;strokeWidth=2;fontSize=19;fontColor=#CC99FF;entryX=-0.008;entryY=0.209;entryDx=0;entryDy=0;entryPerimeter=0;exitX=1;exitY=0.5;exitDx=0;exitDy=0;" edge="1" parent="2" source="22" target="bHijceM4AnhrFQvCDv7R-177">
          <mxGeometry relative="1" as="geometry">
            <mxPoint x="140" y="269" as="targetPoint" />
            <mxPoint x="82" y="269" as="sourcePoint" />
          </mxGeometry>
        </mxCell>
        <mxCell id="5" value="&lt;font color=&quot;#000000&quot;&gt;MICROSERVICE ARCHITECTURE&lt;/font&gt;" style="text;html=1;align=left;verticalAlign=top;fontColor=#4277BB;shadow=0;dashed=0;strokeColor=none;fillColor=none;labelBackgroundColor=none;fontStyle=1;fontSize=16;spacingLeft=5;" parent="2" vertex="1">
          <mxGeometry x="10" y="90" width="180" height="35" as="geometry" />
        </mxCell>
        <mxCell id="bHijceM4AnhrFQvCDv7R-192" value="" style="shape=image;imageAspect=0;aspect=fixed;verticalLabelPosition=bottom;verticalAlign=top;rounded=1;shadow=0;glass=0;sketch=0;strokeColor=#6762A6;strokeWidth=3;fillColor=#FFFFFF;fontSize=12;image=data:image/png,iVBORw0KGgoAAAANSUhEUgAAAggAAACzCAYAAADsbuT8AAAgAElEQVR4XuydB5QUVdbHb/X0JEREBYyYc8bsmnNaE2YFxYg5syrTA6PTgwlxFbMYMWJAURRFMawBXXNCMRIUERAFmdShvvN7wxtqaqq763VXD/Bt3XM4wHTVq1e3euqm//1fS0IJNRBqINRAqIFQA6EGQg24NGCFGgk1EIQGjj766JItt9yyl23bPfR6JSUl/x04cOCsINYP1wg1EGog1ECogY7VQOggdKy+l+qr1dTUrFBWVtYtlUpZkUik3LbtQSJyZI6bqk4mk0Nramoal+qbDzcfaiDUQKiB/zENhA7C/9gDz3W7NTU1kU022UR9LyZPnvxPEblIRPbIdV6Oz+d37959xf79+ycKXCc8PdRAqIFQA6EGOkgDoYPQQYpeUi9TW1t7imVZ1Qv3FxWRZUWkaxH2OyMWi61ahHXDJUMNhBoINRBqoAgaCB2EIih1SV0yHo/vIiLXiMiWCx2Bjt7qdrFY7MOOvmh4vVADoQZCDYQaMNdA6CCY62ypPKO2tvZBy7JOWtybTyaT5TU1Nc2Lex/h9UMNhBoINRBqILsGQgfhf+AbEo/HvxOR9YK+Vdu25a+//pKpU6fKvHnzJJVKya+//ip//PGH9O3bV7p06dLukrZt11VXV8eC3ku4XqiBUAOhBkINBKuB0EEIVp9L1GoLWw9/E5Fu+W4Mo//nn3/KnDlzlAMwf/58+eqrr+Snn36SdDrdbtkePXrI77//LltvvbX07t3b87KRSKRH2P6Y7xMJzws1EGog1EDHaCB0EDpGzx1+lZqamq7RaHSunwsnEglZsGCBNDU1KSdgypQp8t5776lMgFtKSkpkhRVWkG7dugn/XnPNNeWiiy6SffbZp/XQDTbYQL777ju58MILpXv37l5bGBKLxar87C08JtRAqIFQA6EGFo8GiuYg3HXXXaW///77rpZljRGRZUTkdRF5kdvs1KnTbZlud968ebaIJPm8pqZG/R2KmQZqamp6RKPRmZnOojQwduxY+e9//6scArdEIhEpLS0V/ffRRx8t1dXVyhnIJWQVXn/9deUwrLHGGnLmmWe2O8W27Xeqq6sBTIYSaiDUQKiBUANLqAaK4iDU1taeb1nWEBHpnMd9k7eev/C8v0WkKhaLPZjHOv+Tp9TW1h5kWdbjmboUksmk3HDDDSpjoGXllVeWc845R+EGcAzKy8tl2WWXVX9nEzIOb7/9ttxxxx0yceJEdWhzc7Nau76+Xv3/rLPOktVXX73dMrFYrCjfvf/Jhx7edKiBUAOhBoqggcBf0vF4/IqFrXRBbveXZDK5Rk1NTfuid5BXWcrXqq2tHWBZVg1JGq9bAUg4YsQImTt3rkyYMEF23nln5RB4CVmGGTNmyOjRo+XFF19URp9SxKxZs+Tnn39W/84k0WhU+NPY2CjbbbedHHbYYaGDsJR/t8LthxoINfC/p4FAHYR4PH6yiDxQJDXOjEQiew0cOPDrIq2/VC+byzGbNm2aPP7448pojxo1Sg499FB1v0OHDpVvvvlGAQ4BFwJAxAHIJOAOysrKZJllllEYBARngGwDf2v5+++/VUfDRhttJH369AkdhKX62xVuPtRAqIH/RQ0E7SC8KSK7FVGR9M+fFIvFnijiNZa6pWtray+0LOvfmTaOA/Dkk0+qtsNHH31U4QPIEGyxxRby5ZdftjkNw7/iiitKZWWl+jmGn/9XVFSoDgYyCJybS8hScCxZigMPPDB0EHIpLPw81ECogVADS5gGgnYQPC0H0SRRJxEmwLdCxbbti6qrq28udJ2l/fxRo0aVTJ48+UoRqc10L99++6088sgjsvbaa8tzzz0nm266qSox0F0AQJG2RMoAXngD8Ao8OzILYAtyCVkIsAf8TWsk2YpLL71Ull9++dBByKW88PNQA6EGQg0sYRoouoNw3333yY8//uh52zgLRKy0zWGoMFpdu3aly0FFu/w8k+AkpFKp2/5XOx1qamo6R6PRC0SkLpOO0Dv6xzn45JNPZLnlllPPYt1111Wn0GWw7bbbtjmd7ACGffr06artMYv+FQ4BZwBsAw6BW3AKBw1i4GM7eSkWix20hP0uhNsJNRBqINRAqAGHBoruIIwcOVKIYp31aX19jIszXe1OXZ966qmyzjrrZHtgt3Tv3v2y/7UpgWeeeWZpz54937csq5eXctDj559/rsoKnTt3VmyHOGNvvPGG7LnnnmJZluy0005C94IWzvnll188DT3H8Dl/yCjMnDmzXZlBZ4Y0eyIOQ69eveTII9tPg7Ysq66qqipkUwxfRaEGQg2EGliCNVB0BwEa3rvvvltFqkSsTpk9e7ZCymvHwPk3kS6GDAS8O8p1rmHb9lfV1dWbLcE6Dnxr8Xj8LxFpz2O88Ep0Hbz77rsqA0N5ADDhkCFDVDRPWeGAAw5QWRqngFOgpOAUMgm//fabOsftzHEca+Bk8JxwEPibZ/j999+rv2tqajI5hlsPGjTok8AVEy4YaiDUQKiBUAOBaSBoB+F7EWnJXy8UDAUkOyeccIJKXbuloaFBfvjhh3Y/J30N8h6jRdS79957Z7vpv2KxWDFGFAem6KAWqq2tnWVZVkbqZJ2x2XfffeWVV15Rl4Xj4M4771QGHIAiWQWnYND1s8GhIEvgdhZoh6QMhLPBv3UHg3MdcAo4hDgTJ510ksCo6CFvxWKx3YPSR7hOqIFQA6EGQg0URwOBOgh1dXWP2LZ9gnurN954ozIoMPfhLGgSHX0cTgL0vm6jpIf/8HmmdLXjWguSyWTX/8+YhHg8PivbXAUIiygTAAykfRHn7LTTTpP7779fER/tuOOO6m+nkKnRzwPMAc8BgUpZty9mIkzSw5pwLvijgYwwL265JROl24tlWXtVVVXBqhlKqIFQA6EGQg0swRoI1EGIx+PUldsh6jVQ8YUXXpBdd91VGay33nqrjVpwDjButNI5RdfGMWIw8vXv319FwpkknU5vMWjQoC+WYJ0bb62mpmadaDQK/4MntSER+7///W81O+HWW2+Vc889V+EOMNTjx4+XVVZZRbbZZhvVSeIU+A7IFiCsoQcwrbfeep465lmALcBxA5jodOhwJhjQ9I9//EM5Fxnk1Vgstq+xAsITQg2EGgg1EGqgwzUQqIPA7uPxeLtWx48++kgx8uEcaMeAaBc2P/dEQCJYt5PAujgPsPmR3v7Xv/7V2qefQWPnxmKx2ztcm0W4YDweP1ZEoE72FCJ3qJOJ/mljhACJ0gwOATwEG264oeI7cM5c8AIkgjXA6NOS6BywhBPA82Cao/NZwYsAgJTOiD322EN1o+SSaDS65hVXXDE113Hh56EGQg2EGgg1sPg1UAwHoR2ADuM0ePBgdbd0Jtx7773q36DhL7vssnYlB34OgNHd1UB9XLfTDRgwQBmnTGJZ1m1VVVXnLX4V57+DeDx+lojckWkF+Awo3wAQpHxDBI+DtdZaa6mSzi677CIrrbRSm0gfneI4oEstmvUQo+8GkgIixUGAOAnCJLIDOCHubESOu0wmk8nuNTU17Xsh81dPeGaogVADoQZCDRRRA4E7CHV1dTW2bbd4Aw65+uqrW2vUF1xwgUqJ61IB/ydD4BQiV9oj3U4CeAQiZATw3aqrrppNPY/EYrH2PL9FVGhQS9fV1Q2zbfviTOuhL7IwpPYx4hhuaJI322wzlWUBg/DmmxBbthUcL7IFWtAvo5l5Fuuvv36bgwGKUnagtMPQpTwlGYvFvAc+5LlgeFqogVADoQZCDRRfAx3mIDzxxBPyxRdfqEgUI49BAyAHaI7UNT37zAhwCj/XcwLczgPnEjn/85//lO233z6jpizLer2qqmqv4qsyuCvE4/H7RaRfphXhOHjqqadUmyHzDtDhbbfdJhdddJHKFnz88cdy3XXXtRuo5HYOWF+XbngebmIqshGULnDg6GDIQ+aXlpaudvnll7cFluSxUHhKqIFQA6EGQg10rAYCdxCGDBmyazqdbotAFJF33nlHXnrpJVVioP3tiisY+ihyyCGHqNo5ESxsf/F4vI0GdCcDoDunEN3qoUKg8w8++OBsmvt05syZOw4fPjwzNWDH6r3d1YYMGbJ7Op3uA/mRbdvbZNoOZEdgN2BD5N9kUI466iiF8SCbAN7jpptuakd4REnBWVZgfXAF/IG90u0A6M/QLU6YqaTT6bMrKytHDhgwYNFcadNFwuNDDYQaCDUQamCxaSBwB4E78QIqksrG+AOCI2p9//335ZhjjlGUvlABQ6pD7zz17vPOO68VXa81Ay6B2rlTaKsjguZvyJQOP/zwjIq0bXs6g6Sqq6t/6iht19bWrm/b9gqRSMRdKlhNRDYRkcxc0h6bhNcAkCecEGRbMOwwFT777LOqPDBmzBjVxUDJwSlezgGfU1rguQA2dDNdwo1ABgdAqGZHzKE35j+flkqlpg8ePDhsY+yoL1l4nVADoQZCDRRJA8VyEGh1bEely+RARg4DnJs0aZJyFmBZpG8foByESA8//LBqy6MkQdnBKV4pcjIM1NTpcKD3HieBGnwmsSxry6qqqs/z1adt21Y8Ht8oEomc6FzDtu3Vbdtez7KsnfNdO9N5GHHaFXEOjjjiCHnssccU7wDZmGeeeUY5WpQYcMA0PkOvRSbA7TCwHiUadNezZ892HSE4Y2RsVlttNZWpoCSkdc+/Bw4c2I6JkevZtn1jdXX1ZUHff7heqIFQA6EGQg10vAaK4iAMGTJkh3Q6PdHrdl5//XV57bXXFH7g5ptvVrwGGKrjjjtOlRr4Oax/J598srz66qtqPDFGSQvZAh3dOtcnk4CTgVHr06dPO0Ig57GpVGqfwYMHv+b8WV1d3UqpVGp1y7K2cPyc0ZNbWpZ1fsc/mpYrUkqhNPPBBx8o2mlKCTBP4hRQkjnjjDPk9ttvlwsvvLAN+JBzMfJuh4Gfw5eAwQe7gDPmFDAM7uFaMC/iSJBpGDt2rCJcylR2SCaT69bU1HhP51pcSgyvG2og1ECogVADxhooioPALurq6j6wbXs7rx1hzB966CFl0GlVfPvttxX6nla9fv36yddfwwkkCoW/+eabS1VVlWqJdAodDhhPp2jAHcx/AOuytUGKSD3jBIw11oEnkCUg44JDcOCBByrjDGiTcgpOE87V8OHD5ZRTTlEZFKdQqtGsiM6fa7ZEMB9ehEh0LaBXrukelIXzQKsjfAl0NdDd4Bbbtv+bSqV2rKmpSXegqsJLhRoINRBqINRAwBoomoNQW1u7sWVZLZY+g8CwCNCQWjdRP/VzjDrGnSwChooaO7wJkAFRlnAKvP8YK6dQbydyJo1uUD8PWK35Lcee0QX3zR/aGDH8YDJoC+V+11xzTcVBcO2118r555+vAIruuQg4XhrA6dyJbmnkZ15zEjQfAvwJ//nPf9SpnMNeNO8BTgIOGJwJAE31FEfndSzLOq2qquq+/LQQnhVqINRAqIFQA0uCBormIHBz11133aqJRKItwYHrrjE+w4YNU+BEgHJEyfvtt5+qsZPK/uyzz9TPa2trlTG8/PLL26zghUuAlhnwI8aLKJuyw5IkGF0MP0aclkQifc1SqJ0E/X+wGJQT6FgAnMjP6VSAFIkBWGQEnMK9kwVw80dwjO5MoGTgxR8BaJHPNBkVTpse88wQKI3tAOtBq+X++++v2DE9JBWLxaJLks7DvYQaCDUQaiDUgJkGiuogsJUhQ4Zskk6nv8q2LYwQHAmaB4GyAgaRvnyMITwHGEai3nHjxilWRmdKnSwC0bVTNMkP0TUTDDMYMjNt5Tia6Bp2Q8oA/MF4c29gLPg3ZQH3QCr3khhhXToBd7DddtspfAHZFXRAeQbcAJwHbnwB19DgQ/e66AgwpxdbIsfiFJB9efDBB1U3CdfEydJCuYEsDsL+4E3gfij/uDsgFp4zNBaLDQhUweFioQZCDYQaCDXQYRoomoNAi18kErk2nU6vuBDZnzOiJMUNX4JObx9//PGqq4GSwS233KJaIZEDDjhAYRacYDqMI+BFZ+Ts5EpgHgHDi0yF9TCE4BuoywPwQzDWROsYVrIfXhG7vhbtiDg9lEsA+yE4AnRxYHgx+GAC6ESAeprsCQ7TpptuqrAHL7/8suoawCHAaWIipsZp6GvgeHD/Xg4IeyOrwGe0lLq7PLgX7g2dkhmYOHFiqzPg1BfAUWiWkbvuukvhEDbeeGM58cQ2DR2tp1iWtV9VVdV4U52Hx4caCDUQaiDUwOLXQFEchNra2kcsy2o39tnv7U6ePFmh9TG8AOmGDBmijDsOAWUG0PtgFUDSOzscWJ9z9dhh/o9RxLDiLJAax0hTeuDnOB5EyUTWOrWPcYZvAVCkcx333jGyK6+8suy1114qs8H/WRdngAFJAAmJ1v0KrYPgClgHI40hxxjjHDAhke4PcADXXHONfPjhh22WxcBz35myE9w/eoIMif25Rc9boLtkhx12UB0kXg4P90OGQWcMdt99d9V6SSlio4028rrVr2Ox2KZ+dRAeF2og1ECogVADS44GAncQ4vH4NSLSQpNYoFBmwABhqOFIoPMB5HxdXZ1qkcSQg6rH8DsNH0Zf19HZAsYOI6hHG2faFlE8pEAYeIy+nlBIXR4+ANoMdbRf4K21nq7BlMxOgB8CTAI/A3fw7rvvqnkTZBYQsiju+QqZ6Kj5OWUFdMR6UFzr7IVz7zhElGcOOugghf/AAYBwKZPg+Fx55ZXq4/fee085L2RC4LLwknQ6fcqgQYMeCEpf4TqhBkINhBoINdAxGiiGg9Bu3HMht0Lkf88996jaOwYc1kDAcSDpyQaQacAA9urVS00x1AOgvAiC9Ehj9oMDAOiP6BejZzidMOst6bIExll3WXAf3AOZAKJ5yiU4N5dccoky/KT3cQ5o39x3331VBoMBV7FYTN0fhvv5559vc12wDe7ODn5G5kXTKoPBINsCZsBLcA703nAWLr4443yo1tPJdOjBTtzHVVddJbvttpsCl3rI7Fgs1r2Q70B4bqiBUAOhBkINdLwGAnUQamtrqyzLajtMIcM9afAe2QEMlP4/kT8AP9Ls7t5+51KwMlKjZ4IhIEQ9oZCUv84mYCgxgM50uR4ZjUNAmyUGe6uttlJGmfp+9+7ZbRkGGEMK/gDRsyLATrCWdlAyPUquoTMCffv2VcDMPfbYQ53LXjX3AMfQgcHeKTPgJDmFDIETh8A+AEhqjASOAZG9ewCTcw3d7UE2hpbJM888s/X8XF9F+Bkoh3BdCJfAgJBZIFPhlnQ6vdWgQYM+y7Vm+HmogVADoQZCDSw5GgjUQYjH48+KyGHu2yO1DwiO2rmbvEe30WVTCZE2ESotjkTRlBgQBj2RDtdUxGQWEAB9ABkR6vI4HFp0vd3rehj3QYMGtYIhvY4BB0H/P4bRVIji4XfgOttss43KGADEfOSRR9QeN9mE8QyiQJpwESA4HrSBugXnQLdCaoIofQwtjJRFcolmpGQd2Brhm/Ar5557rsJfIJSBwCPglJBN8JA5sVjMO4Xh94LhcaEGQg2EGgg10KEaCNpBaFdewHhjdN2gN0oERMuwAGJodL2fqBTjhjF1EwBpzeBkUF6gBRLMAGlxUt0Yf2rpn376qQLSsT6pe65NKp4+fwz7rWf2lBWXLZErRv4qU35vVstSQ6fcAMbBmY7HEIPq5zqk0PXgIq7FfemIPddTw/jD5YBQCuEeBgwYoMYyU2KgbRHBAQGgqA0v0b1bACQSseMYUK7QuoXvAecoVxaD9TQ19dNPPy29e/dWnQhkRkxElxrQz0477aSui4PgQZ40NxaLGQ2mMtlHeGyogVADoQZCDQSvgcAchLq6uttt2z7bvUVS0ZQDiJIx3tTD/RgwP7fKrAbGPFOmgCuBVDzlBaJuhjZBooSzQbROlLtbrzXksQuWk5vHzJTrnpmpugy0UcRAMyaZaJp/AwakzOEW0uncBwOTuA8i7xEjRmTdLhwMrAkmAbAjpQ/wBbQr0pWBkcYpgThJO0p0FDBjwS1E/TgRlF9wDNgDwEnO86NXdMU+OJ+uBhyF+++/X92HicDoeOONNyrds3fWw+HxmvyYTqdPGzRoUMisaKLg8NhQA6EGQg0sZg0E5iDE4/FPRGQr5/1gbGnLwwjrdLjp/XIuRozWRg34o2ywxhprKLAirYpErRh3hAmHzCcAY4ABJspFjt5vK3mof5mce/v3ct9rfygmQZwH9oXB5W/aJnEuFvw9TwaftqNstMIfcth2neTZiX/I218vkBlzEzLqnbli26KyGwAmOQeuBsCSXsL0RTITZCLATCDsFTrpnXfeWWUnwEBwf1q8nAMyH8yqQBcI9we+wM8oZrIN6IlSj26FpKMBlkp0SgbGj3PhvD+cAzIhlFvIgsAzQeeFh/wVi8Xa91aafhHC40MNhBoINRBqoEM1EKSD0K68QPobvAAGm3kCWjDGGCvIe0jV83+iYT1g6P333/dlsDBKxx57rOrBp9efsgNGFONJ5oJIn5bFxvlzZNp9m8tdL06X8++epowZka/TaSFtj5x15NZy61lry9zfvpcR42dJ7OEZkkrbyiGBI4BzGC6lh0dR5sDwQ3vslrPPPlsBKHU7IBkLWjXBR5CSB2DJeWRXtIA/YO6CFoCEZBY0joI1AB+Sycgm3B9RPd0c+j7ZJ9eGc0GDF70YGXN9AykJgUGglEP3CNkL3froce6tsVhssU3DzHUv4eehBkINhBoINeCtgUAchLq6uirbttt1LwAghC6YSBWjjGDsMvXM5/uQSNMTvRLVQ/0Lyx+GEelUWSbzJ5wnC6ZMkBVO/EySKVu1F4IJIKrGAJNB6Na1Up6+9hDZZdXpct+4qXLarVNV6h6CJiJ+r6FEDFMC+Y+hd4PziKoheSJ1j6OCUYfXAOeFGROk+TmGgVJa0BOlBwRniXICThRCdwCpfK8uAX0+TgHZAk38xM8pBTC3AapmPX+Bbgm4IsA+uCdi+nkGDzzwgHJQKO+8+OKL6v7gQ3CLbdu/VldXL1mDMPzcYHhMqIFQA6EGQg1IwQ5CTU1NJBqNzhWRLk59ErUC4sOwOhH/tPNhrIIWQImQDQEyJF2OwSJyP3b/LeSxs0uly/GfyHIrrKK6IZ588slW2mEM8Krdu8hXo06XznPfkPPumip3vTxbGWMMtjaqZDrGjx+vjL6XMeR+wCwQ/d99990KJEnHAlkEcBcACikzkIVAXnjhBWVYtZDBIArHYaG7QfMYANqkHJBh3oHSLWUDDL7WM84IWAfKFxroCZgSRwhWStNygvNZoWNAlDgJAExxQM4444xMj/Nc27ZDquWgv+zheqEGQg2EGvDQQFlZ2YLLL7+8pQ4dgBTsINTV1a1k2/Zv7r1gEImw6d8//fTTWz+mJJBrYFEh90WEDoCQlsihQ2+Q1LsXyYxvXpNV+32u2iwBLFL6oHbPPpbrXCGz3hgopb88J/sNnizjP52v0u8YVJwb7gNKZS1eFMT6Z84sA/cJxwEGmij9lVdeaW29pFxA6UML3RVkEmjh1Eae8yhDaEfBrROyBc6Rzhh9QIdkHXSLI/ui9AIZU7ZZEX71jdNEdgZBf2Q5KFfQORFKqIFQA6EGQg0sERqYEYvFyNwWTFoYhIPgWV4gtU5KHQOn2waJwp1YhGKoUrfeYSSP3ntDuf/8NWSzU1+Ur6a1tDMyNAlAII7C1J8my9SXLpHOc16V/QZ9rZwDWiOJ1qnf4xwgZCUw8rqun2lGA5E+RhvQIZ0blAO4ZzAGUCZTqyeLAJ5BC3V8OAQ0AJNrU+PHidE4B30se2BPODYaV4BTQIcGLY7aMWBNDLmmWQ5Kz+AnuAfaPcmmZGFPDOqS4TqhBkINhBoINWCugXQymVyppqZmtvmpi84o2EGIx+PtvBRdXqDlECyAjqxp53v00UcL2W/Oc2FHJNWP8fph7ABZds7L0uOkz1VZAKwAuAMMKSDJjx47R7bu+q30vuojGT3xT5V6B59ABoGIG3In7oWsBDV3DP5GG20o26zeKButuaIs37WzDLp9gnz+3W/SdZmI/Lkg3bo/HBDaMKFKhhURzAPlFQw6wl7AL+BEIRhezsGZwqnSmQOcEf7t7AQBbAgughkUej3AkpQtKFWY8hnkVKqIKo2Q5cA5Ya/8Dd4DPotQQg2EGgg1EGpgydKAZVmJ9ddfv/KYY44xZ/VbeCsFOQjXXnvtlslk8lO3WjBSRJtuEB4GBqNbTMEJAbQ48e1XZfqz/eTNCS/J3oN+UO2IpO2pwxNh/+uU3eS6fuvIY2NelxOHTZEhQ65RdXVmIVD3x0HACNIqSSsfafSmhgVSMvVpiTZOV7cw4KZxMvTB/8j263eSAUesJFc9MUO+nNIop512msJZ0DEAnwIZAiJu1qWNMh6Py7hx49QaDGgC18DfCFE/IEIop8liONsSKZvA70C2ACEbQfZgwoQJqjSBMwNIEeeHbAOOTaYZDCbPAPppykWsT7kFfoksExxNlg6PDTUQaiDUQKiB4mlg51gs1hKF5iEFOQi1tbX9Lcu6031dkO10LzgR8vz7uOOOy2OL/k+h7k83A6j9Q3dYUWr6rC19Bj4pT3/QKAceeKAynLRBrrVSpXzy8Eky/fMXpedpXyjjD8gPcB9RORkIImNAg4MHD1YbaJj7i9hTnpVO1l+KB6H2njdk8O3jZZt1O8mVR60s1zz1m3z0Q71yJnAAKDdQXoAO+rnnnlMYBAB+ZBUQjDwDj3S7IXvjeIy+xiFsvPHG6nyyELqtkYwD4ElwFjgQgBozcUyQEaEFNBMjpV/NXnjhhSojQ+so1NCUYeCbCCXUQKiBUAOhBpZcDUQikbMGDhzYAhzLQwpyELKVF2hrxJBp6YjyAkaTqBnDeNvAw2S1yj/k8Or/tFPL6JtOlEM2miubn/GaTJre1Po5A5uI9DHeROZ6cFJy3lRJffeolEfhaxC56eF35NIbX5SdNwfMceEAACAASURBVF5GBh27itzx0ix59v2/FN0zgEwwCwiGlRHRtHWCeyCDAL4A5wOsASA/MgV8pjMFTJnESaEFkWidTAagRjIvOApgE0wEx4JOg3wFJwWHh6yBHmRFqaWQToh89xKeF2og1ECogVAD3hoAMO4hQ2Ox2IB8dRa4g6DLC0TsZBK00P4HCVCxBIOFg4ChJSNwzH6byqhXvpKy0og0J1qwAdzsLluvJW/dsr/c8fBLcs6dU9tth/o+AEMt6YbZYn17V6tBHDayxTnYYNVy+fLWTaW0xJIjrvlBnp34p3IucDIQMALXX3+9ygqwH+iWySTAq0C2gFKDBjtSBsAZQT967DTngVOAkKhQgfHQz/Amr+swCwKHh2wKAFDwJJA1hRJqINRAqIFQA0uGBgg4nZw6jl3tGovF3s53l4E7CGwE0iDdn68jzX79+qmIuVhCVPvggw/KyJEjVX8+snK3ZeXl20+SLY+5TYaevIpc9uAMGX/nqbLHypOk9PD3ZPUVozJ9TrLdloi6Af2ttGJn6TLt/tbP6+55Q2K3jZf1111bvh22olgLu0h+/aNZep76haRdcE1S+5Q82BfcBhAkadH8BjgB2uBShiFbACNk0BE6Q6tMBTpojZ+gc4E9ZSNqMl0/PD7UQKiBUAOhBgrXALOIYO31kMXnINTW1t5pWVZ/96YwekTz9PprimC4+zViv3B1LFqBdD11djoAYPY79NBDFZ9A505lMv3ly2Wdg4dKNJKQ3x7YUlY++TNJW2WSSjZJiSUyeuB6suuV36q2Q4CBboEj4fnhJ8muvdaUgcPHyzX3viHbbbediv4jTbOlZMIhraeMeGW2nHHblNb/QxKFQ9C/f3+VntelAbokIDCCgEnzB/B/AIgAFPMZI+1Hn7BCcm0TAXOAI0PJhRkQ6LpQPIPJ9cNjQw2EGgg1EGogtwawe15BYCKR6HnVVVe1oOrzkIIyCLW1tWtblvWj+7rUzUmx01JIi54mHsrCuGe89b59+8oee+yhpjdqoTuBdrxUKik/v3iZPPz8h1I34g2Z+dCW0qk8Il9MaZArHpguiVRazjmohxx7w0+STFuKdRAeAngHjtxnM7n1ioPk3U+nypGXPa6W3m6z1eXjr3+VLbfaSnUMwIyINL54iFQkZ6h//7kgJcuf0NLQwYOCsMjZbsg8CkYqA4RE6G6AcRFQIkDDjhDwDbqEket64A7AHwCsZEpjWFrIpbHw81ADoQZCDSweDWBbvLBmsVisIBtf0MmoIh6PXyIiN7rVgrHFKNJRQLoewSAykrlQoR6+7bbbKhAkNXLokuEDeOqppxSi/4exl8qM3/+UXU65V+49b005dd9ubS457qM/5czbp8q02YnWqY4cAOsgkf7zw/vJP3ddXxKJlGx19E3y9c9z1foMkaKer6W5qUlKXtpVSiItGIdH35wjJw77Wf17uU4ROXGPFWXtHqUy4IFfVRcFmAwyC2ARcnEVMMTpsssuU50gUDLr2RKF6I4MApmEXMIxPDuuDTAR5ykEJubSWvh5qIFQA6EGFo8GyEB7ZHdfjsViBxSyo4IdhJqams7RaBS2pnaMOcwioH1QD2uaO3duG9pl040DxLjhhhtUSQDHgEmECLVxTSX8xVMXymbr9ZBd+t0liQWz5f2hG7de5o/5SdmjarLKJDiFDAeRPRkPygHIaj26yOsjzpD111hB1v3nUPlx+lzV2QDY0CmNb54tZX9+IE+/M1d+mNksk6Y1ygrLWLL7FstJZKF2z79rqkS79FSdCDgxEAxlEkZA87Apz0AqRYaETAnlCjgOChE/GQTKCDA/olPNmIje/WYeCtlfeG6ogVADoQZCDZhpIBNAMZlMrlJTU9NuDILJ6gU7CFwsHo/fwaRk94UxaIx7Juom5Y7RGTt2rMB2mI9gsKjp0zY4bNgwNQ+AlkAQ/6x/9Tn7SvWZe8gjz38ofapHy8fDNpJe6y6jLvX7XwnZ4oKvZeafSZU1oGsAZ4CZC5q1kMiZtf6x0TJSXhqRtyfVy49jL5MVl6uQ5XeLy9bbbN8OR/HIyAflpJP7tQMocs2LD+0ue2zeRV74719yzyuzW50Y5xwGpx4geEJfOBIXX3yxwlLApwA+glZIsgqZOA9y6dMvBoFMB62azK0AbxECE3NpNvw81ECogVADi08DBJBeAwQty1q5qqpqZiE7C8RBWOgkzBORZd2boayAgQPwBpERaet8DB2dBTAdUgYggwDAD6ZCov7XXntNNlmnh3z1zIXq8tsff4vsvqHIDae08BE0JdKy/ImfSUNTWg1AwlgCBtRETqzpJCg6frcV5NFL15YNz/5SJv/aJI0fXCXnDBkj9z37kZrWCL8BGQuMKSUTUjuk4OEtoHXRCXg8YseuUhIReerdP1X5go4FLweBn0PiRLkE0KVTyB4A8MQxwsEyFTxM95pea1BOIOuDUM/iPsgcZJokabqP8PhQA6EGQg2EGghWA3QI6qnDjpUbOnXqtOIll1xiRpzj2lpgDkJdXV0/27YX9QQ6LkTdHSND3Z2IVI82NlETmAOwB4DlMM60dEBPzFoY1r8nXi3LVJSoJa2tquThi9eUE/dowR5se/FX8tGPjao8gBHEMYBS2Smk8mF/RK4+YRWpPnZV+bsxLV2P/0Revft06da1UjY/arhiP+SasC2SveB++BmCs6IHLIH+J9rXXQkMieIc9g74zz1dkTIH3RHcJ9kCaKopNWihVEM3ATwLXh0X2XTJeGbmJ+QSrgntMxke6KJDYGIujYWfhxoINRBqYPFqgJk+HpT6f8VisUUI/jy3GJiDwPXj8TjUiVu490ItnQid9DlsTxhN+AFMhMgdJwNPCWMH4A/6X7ol1DjjT+talrPTYvWqlm9v30Q2WK1SPvp+gWx76TfKkDPHgOPJRsA1QOueUygvwNXw1pD1ZNdNWzoVGBO9xcZryrjbT1GOBwKhkcYiYFAxpDAiUqoACEj5g4wCpE2k6vk/kbh2kMg8MBPCKTg7YBx69eqlZkWQeeHBs1f2hMMBwRJ/yIL4FTIT7DGX7LnnnmrS5m+//aZ0jAMTAhNzaS38PNRAqIFQA4tXAwTOHrw502Kx2KKxwXluMWgHoa+IPOTeC8ZmyJAhyrDT64+QSgel71cA91GbJ1rHOIOyJ4K//fbbFdug20H48a7NZO2Vy2XgQ9Pkmqd/VxwJzEnYZZdd1CXhHjj55JPbXB7MxJQpU0SXGPjw4Ksmy4sfz1frd93lavnr76ZWUCSdDWQeuL/vvvtOAAHCnqgfFo4BTgPAP4w+XA04DMxQoLvDy0GAovqLL75QxEocg5EGQIkzw/yDe++9V12Dv3OJySwGsga0b3JNMhhhaSGXdsPPQw2EGgg1sPg14EWxXCj/gb6rQB0EFq2rqxtt2/bhbrUx6hisAHSQpLIxqhg8Wuj8CLMcACLiIFBeAJTB7ANq5uecc86iEsPCDML3d24q665SIaVHfCSRaJlyEKjlazpKaJGJmN1C+eCf2y0nz8daou7e13wnoyfOUw4CQMU/5y0q6ZC6J7LH6aFDA8Ot8QWwOQKAdAqgSn4GZoFuBd0xwTE4D2RaKD9ALkUZhLVxEKA61qOnyTLg5ND3qttHM+mPkoTmXcimYyYzHnHEEfLee++1gl00iZOfZxMeE2og1ECogVADHa8BSs6Ayd1SKP9BMR2EPW3bnuClKtgUEXr6iW4BB+pWxVyqdWYQMK56PPLPP/+sou2xd/SXg3ZqyahQCvjwxg1lq3WWkegRHytgIFwCOBgYQuo1ZB68WAtxEPbball5+aoN1FqUGLos21m+GXNZa4lB71U7CGQJKDHAb4CAPeA6ZEjAJYwYMUI5RJQiKDNg+BnipFkmOcddYuB4HAnKKnSB8H+cBMoFlGsoUTDCOpNwjUzdEs5zyIKgCxwSwJs4MOgLymrKHUuSAAiFtMlEcAhxgPwKWSSvXzi/53sdV1tbq563ibAHk7ZWnl0QHCMme3QfC4Mq0z5NpdIWeb+xXZd01mUejabk2tL2NOmm13Ye/1lDuZrX4lceiKZkWMB7ODJZIoMTUb9bUMdtWdm0kPTd6LSsB3/eYPY8grty5pWKcZ8TG8qlU0dsPss1jixvlu8iLp5+n3uivO6ejWNZ1vSqqqqePpfIepjJ74Pv68Xj8ddFZA/3CaSuyQSABRg9erT6mPoJRjmXMN+BLgFAhkTV1PERnA1YCf+551by/E1Hq5/hILxcs57svtmyUnHUJ60OwqRJk3JSGbOXo3deXkb9ax1pStjSrc+n8uTQ42WzDXpKz/2ula02XEU+/baFPRGkP+UDt4OAMcdBoF0QvICmUSZtT3kBow/jI06FFgw12QFmH4BxwJk56aSTVFSvQZA6U0FJ5dZbb1V01mRRvARHws9QJbIeMEnCzUAZSAMT4a7wg13I9dyC/Py2227LNJAk42UAfm611Va+t0GnTBADspwXfOaZZ2T//ff3vQe+P6bDtcCskFVanPL2228b3afe68ZpSz5sNBsAtnFFg0yNBHe3y9si0xsqjRYcVJqQGwN2EG5uLpXTk/4dhK+ttGxXWRg/ivum90pF5PmmJctB+FtsWalTo9HzyXVwZ1tkWkOllOU6sIifQ7G3bKf8Gg14V+MgeHDUfBiLxdqnFfK4j6I4CFdfffVOkUjkXa/9QHQEtTCGkiiXf2MI3ah+97lEs4w7BkAHmJCxydT/yQIQua+xcleZMq4lusRBeOiiNaXvnt3EOuwj3w4C0TNp//MO7i63nLGGXDJiitz8wmyZ/cYVMuDf41Wb4/M3HSOHXDyq5ToLOxg0nwKOgO5Hpezxyy+/qCwJfapE/+ydbgSO11gIfZ/gM2BqZLATlNS88NERfAhkCrQTRcaEVkowDxh2HArdOaHXQi965HS27wQZBpwC9qmP16UFMA+aUjqP71VRToFeG2NrIgA8+UXyK3Bt4FQEKabOFs+e524iZKoWdzsqDjFOq6lsnY7IfwwyCIW8VDPt7cBURJ4yNIobVzbKVCu/yC/TPmbUV0gXgzzGFaUJGR6wkzK0uVTONnBSTJ93Psf/YNmyRWWwDsLKtiU/NJg5pvnsPds5v1i2bJDnfREok4H3ACi+FIvFDgpir0VxENhYPB4fLiLtivyk1R9++GFlfHQETYobfEI2wZng5YMySL2Txidty78xGqt06yK/jL9cLEtkmR1iMui4VeXy3itLae+PJVJSqjAIGFU9YtnrWgAn06mkLHiylzz42iw5645p8uOY86TnaivLcrvEJSJJmffuVbLG/tfLtJl/qSVI7dJpwNo8MMB+/M29AYIkvcweyYDQ1QAXAv/fZJNN2jlFABk1ayGzEDDa9Lg++eSTcvXVV6uUM2tQXiADAdCSrgbS0ZpACf0wsjqXcNz999+v9n7cccfJE088ofZFRoTPWHdJE1pBTdLuZEAwziaCXp3jvk3OzXQsjp6JwPNhQq1NtsHtJJpcL6hj/bTSel3rnqZSOSHlP2r+OJKWXSuCjZpPTJbI3c3+Y0ncgs55Rn6Z9B21Rf4yzGKcUtYso6KpoB6hWueW5lI5bQlzED6PpGWngJ/5RmlLPjLMXAWqaBF5rSQth5bn913m9w1OHrfEYjEiokA812I6CKuJiOcUKUCKGCAiVwwsL33Ik3IJNX+GB5FeP//885VBA3hIVE17Xv3EwVJWWiIbH3q99Nuzs3IQHpowW06+eYoccsghij9AT1V0X4vInmwGpEYVZRFZ0JiW75/qJ+uut74ceO6DMu6dyTLk3N3lyjP2k+rbX5X43a+ryBTDjFHF0JIZwMDTMnjWWWep8gmlAjIcZ599tsoewC8AJoEWRkojTqEEQwSPgQaZCidC79691blkCuCTQHTGgnovwEZaNzXBESUYjc/Ipk8cFoZKgTUgg+PkPAAwSbljSRNnSYa9kQHJ5shAx01UayLoL8jhWazH99Ov8H3i+WXbA9kznpsWnh0A2MUt7udDaUd3LWXb29/1lQYxs8id0aRcWpYI9HZHNpVJ71QLj4ofeSeSkv0qmv0cmvGY7VMRGe1wSnird7HNXsm48UlHFmOdikZpMlui3f6mN1TI8ob7KEgRPk5G0/WO+xxUmpR7o2YYlGcby2Q7e1E2scK2ZPHmD0S4g78d98V3u9ZnRoiyJe9qtwQFUGTdAr9K2Z9sbW3t3ZZlneE+ipr9LbfcouiOSb0jZBU0LiHTqhhfGBkxoKTo3angF24/Sw7+R0855Lz7ZOMef8v1J68uM/5IyKqnfK4MILwJbu4DShQYbpwUZidAsTziij1kp+23lLVX7yaHX/K4PDfhCznloA3lviF0cVryysTv5YCzH1BkSwDgNMFSpn2TLn7hhRdUlgHBSUEHRO7OSPGOO+5QpROwFmQP0AfRJKUJPkNnlCw0YJHaE4YEfWgHyA9uALwD6yFci+gTvIJOxVPOoANiSRY/dXoyToxB9St+1vS7lj4O5ktKTH4F5w9HOBulNt8lnNAlWfzqEoM4wzDNe1VpQq73+RL1q6M/6yul1O/BInJRWULuMTRQ7uVfayyXHdP+y1+5tkccukIAWY0F9WZYjFz7Ksbnp5U1y+OGmZPZ9ZWypN/ZieXN8myJv4yQV3ujZVnfV1VVtTD3BSBFdRBqamrKotEoxAftwpu77rpLGTtYEImUqaHS9phNANLRp097IoA1onbSq0SRutb893s10mfg4/LBp9/JtPtaOJuefvcPOeb6n9S8BEoVGryHU6BLDledtYdccerurYCPqb/Nl/OueU6ef3OSwgA8et2Jsmyihdxo4hfTZKe+dyrOBAw4jsqX746RnyY+IF07R2XN7uVy8b3TZeafCdlm3U7y3ayoaoEEUEimA5KmUaNGKYNM+QBsBQIdMtkGAJjjxo1T+AqyJJRjHnroIeUYXHPNNaqlkm4IMiLMaqA0wp8LLrhAlTdyCaRTnIe+KTM4hzHhbPAsPCaD5Vq2Qz+nvLL33ntnvaZp7Z9Sl2mXRK6bhj0TrIhfwYHVoNRM5wBchS9jSRbaiAEj55IDUiXydJP/1D7rUbOldhuU5ANQPLWsWZ4wNFDO/fLiJXMSpEyOpKVXgWn4fLAYQd6D37XWqmyQWQbWq8wWmWtYvvG7lyCP27uiSSYunA6cbV3smNe7yrKsR6uqqgJDKxuoOD811NXVXWzb9jD32bTVwaxItKQBeERGGCwvAYwBQVJ1dTX4hlZ+AA3Q0Gn3f526t2y3XoUcPXCsJEdvLSULRyouaErJv5/7XR58fY58P6NJbNf75aTDtpfVunWSZCotY9/+Ub7+vqU6AvAQHEHztw/LMqmW7oX3Pp8m/zhpkYPAz5q+fVzKvx3auvW1Tv9CpsxqlpEXryV9b/pZRZE4RDpjQv2INDHdDhgF5krgsJCVYGYFDgR4A5wgjDXH4lBQHwfIiOjuCT0fAvxDrlkN1Nhp/UP/rM01nYyJ1PlxPDyAL/l9AYp0FnwRuSin4dgwcXT8rGl6O+wRdk2/wrPMNu2Tdch4+eG38HvNYhxHRmvCBM9u5zaXI61Pet9ElgkgSnZe79RkiQw3wB9w7nqVjTKjACdlVduS7wwzJ7l0FAQ2Y3RTmexnUGrJtadifW76HbiyOSqxpEmOqFg7z75ut04N4qengcyvV0BtWVasqqpqIa1w4fdQdAeBLcbjcUZOruTeLilgeqf1ICeiYq9WLRQByBD2QGrKvPRpMXSitknJYnyJsh8Y0kf6DXxYbjptNbno0JXbaen0W3+We8fPUcA/XuAYbiIeZ1qX2g6ZAfAFSMMHcaksb0kHjn79WznykpHqvNZU/A+PinzV4gfhfJQf9bEct8vy8tDFa8vaZ3whzdFuyiAT6TuBkmQnxowZozIC3BdlA/AJ99xzjwwePFg5JzgGlGB0doB/Ex2zXzAO2miwF7IIYDu8hDo1TgTnYWDIurgZE3HYTEF6QfMGsAccpGwCF4Sz8wWWTKdBMgUokq0hG+SuoxfyK5YP2NONgcBZZEiXU/yAUJ3HF/p8cHDIaJkI7b1kT3LJw01lcoSBQXozkpKDCqz9u/dUkyiVAQbcA/l0UZySKGnTGcBklLUc9fBcevLz+Vyx5VeH0wJHg2ka/qXGctnNoOwx27LlwDxBdpnuaVRTuaydBQOBAf3R4im0CPd8uOs78URjWZs11rEjRuWFvyxb9jG8LzpxKgqo2pu0clKCBjvmFsuyelVVVX3q5/vi55gOcRBqa2vPsCzrbq8NYaQB5pEBwEASQTtrK0TWtP3R5QCDIgJ2wd3SRbSN8XUajT037ywT4hu2ueyY9+fKYUNaSgXbb7+9ai3UQsmAdDDGgp/zOdK04E8p//721uPOjL8g9z7zvjLsgCR5gc55u1ZW/KOFKOnD7xfIdpd+Iy8NXk8O2Ho5eWDCHDnl5p9VCySgLbAIh+/QRX6Y0SxfTG1UffqQPeEskU0gNesGU9KOqA0DBp5yBcewVxwjjABpd0o2lDO8BHZHHBJe9pQxvEY583NIqfwKCH0wDUEKpFaUXkyE1k49nZPzcDBwKv0K2QbKLnyPghJTgCLXdreWAiY1oSR37z2I50PWDgfMRHBW/ThbpvXuf5Um5LaA8QejG8tkv7R/gGI+TsoXDRWyTgcD/84oaxYIpUzkl/oK6Wpg5PqUNctow2tk2w8GidbDlQx05e5wIIybX2D55q1ISg40cEThVJhZYAnjhmhCasr8vX94j3uVGYMEKPKcOsRB4ELxePy/DFZ0fzlor2P2gJOCmagJwweDIOyLoMCJKp2TE53r8BLUUTPGitS7FqY67rVFF0mlRXYc8I388keitfuA2Ql6qiNRPQZYR+RORyMxaYSUNresOb++WXrsdZ2K+LXAYLfrvCuksiwi8+pTstzxLQ7c7JFbyopdojL8hZlywT3TlQOEA4IjgzF78vJ15Ol3/pDH315EmKQeysJWTsCJZA80Ch5UPjpB0Bm4BERzI9DdAckP5Yhnn322jao1MBGnQnMdeA1jwknR1/DzYqEsxPMKUujaoFvFr4DJcPM+4CjRSupXcNxM7tvPuhBeuWduZDuPzA0lIKfghObCWmRbk++3yR681sJZw2nzKziwZMtySSdbZJbhS/WcsmZ5MECDxB5NnZT9KprkHR91Yuf9f91QIWsaGL1cuvPzea+KRplsyNBnqgu/KXE/++UY8rW/1lcadRecWN4kz5YsyihsnrZkYoHti1tWNMr3BrrbNRWRcYY8Gm6dbFPRKN/4vKYXQFFExsdisf386trPcR3mINTW1h5qWVZLiO0S0ui8VHTqHYNP/z/OAz+nXs9nGFd3TVlPUWRJ/TllA6cBd16OzAPOhp7roB0EXsx0I2CccQ6I9nWXRNN/a6W8rERGvfad9Ll8pCSSLV45lM1kPiorKqT+iU1l2uwm2eCsr6QxYcvHN20svdbpJJ/+uEC2ueQbBZBEMEJEq5AylUYtSaVtSS/6bqu9sUeNAdADpDiXe4dER4/25N+6M0JjG3AAcCrc0zL1KGdAjny5vLIHnEfZwUTAQ0AKFaTg/JAl8itexEI4YSaZDT+1f7/70ceZ8h/gUJAxcwoA3ELwIDhKJl0UXvdoykZJqQcMQi7pn4jKsIRZXXjNygaZHeBbazlb5FdDJ2WfiiZ5z8BBYLt0SfhnesilOX+fm9bpD09G5JFm/wyKpPpX7dQghTV7tr0XSi+/G0b/7vusaY7KgALxBqa6OzRVIo8ZYmncT3GTykaZ4gPXkgWgeFVVVZU3ta6/r0y7owL8Vcu9g3g8/gIDEt1H6kFO1N7pbkDIIGCweMljhImm3fSzYAAwiCiMCJK/dXTOGkSiRMtgHMgwONcAGKlLDIAfoYmFV4BrUP9H6K4Ye/MJ0mOZFtjIP06+R76Z+pcqdRBVYcQU/0J9vWy0eoV8/2ujJNPS6hyk07Z07/u5/PF3Ur4cvolsdv7Xah3thPBvnAHSsXrugv4Z5QAwCLofniwFfa9gBzCIYAdwHnQHhO5qIPX0/PPPqwyDpmGmVgWp1BtvvKHa47ycA65rWrfnHMigTEoSub8lohgkTQQgKdmTQgwrTlcmjgyTvehjKRW4W2pzrQP4FgeukDUoxzlr/zjQgBoLEcCbJmBPfi/phMkl/0pEZbChg2D64s61h8sTURlkuIeelQ3yR5Y354WJqBzvwFVw6GY56vq7VjQaGdqHmspkwxwYhi8cTsw0y5ajy7Ob8o8aymUjA1wEtX86SoLrJxE5KlkiDxoARsFdrO6iYB7eXCqnGhA9zXfhDbifr3xG8vr7taJtySoFKmJSxBY/BSF+HwG3u8WyrKXbQRgyZMhG6XR6kvvGiNgh+yHtzotFR0wYLCJjetmdg404HkeAmi3ZBQy/xiCwNjVTshLUgKnhUqZgHYw/x5KSJqVMVM3L9JFHHlFGnwwEDgovQ1ohMVTs5bA9N5YbLj1Mzr7qMfnspwUKDLf55psrqmeuQTaCPa2/armMOHdN2W2zlvRqz1M/l+lzEvJa7fqqzPHAa7PklFtaOgRAoZLi11gKDD774Wc4BkSTWtgXoDwMPE4CDgVtnqyDo6MdGpwg9gxfAq2glG1gXSTK596hq4atEeCl1wufVDYpbRPBEAZZt8+HpMmNmIdACUyHX8HRonsjSOGZ+QHpOa8JaZhzuinOH2RbJuK39m+yZrGOhbhmX4Pa/8slKemdw8iZ7hVDe6QBSNIPQPG25lLpZ2CgMLErGswZwOGAzKirQcni00hads7RAjmpoULWMFjzGyst2wQ8B2JqQ4VgbP3KGyVpOdgFJvysoULWM1jjutKEXB0wrsXv/vM5DtvjlaGLRCI9Bg4cCK1AYOL/SQR0yXg8/rCItOvTpP5KpE+kC0EQkS5Mg/3791d8Axg6hBcoGAONxMdAQzakCYdefPFFBcDD0MNmSGSIIed8zqH7gQiHYrtHrQAAIABJREFUv3Ek6JAAZEjt/tprr1WlDM7BYGeKAInQ9QPCicHh4PoXH9pDhp3WMkRrz4HfyBtfLZDqY1aSq09cXf3sjFunyIjxs1W2Q+MAwD3ACglQEYNALz4CsyQATow9f3AMMN4wJ5JdAFCno2bS4zgH3B/3ifPB/8nC4FhxDa0PJ2Oi+5GSwcFR8ytEp0ETKlGuYF6HifD8nCWlV155RY3T9is4WUFPrgS8mos+3Lk/9u9uh6RbxStSyHRffsmJ/Oql2MeZ1ruPLm+SFx215iD290ZjuWxngNqfEEnJITnAa582lMv6BpH4sGhCqn2C07hnpg9OM6zT15Ymsk6/BNg3y3DNo8qb5KUAnwcw0XmG5YWxJSk5xuU0mn6vcJxwoJYW4Z1AFsEtQQMUWX9xOAgAFQEsthMMHrV5mAeJpgFGMe9as/7pYUqcSEsaUT6Dm6ibY9Qxihh2omQMLtkDr2mHRN4gwzFEHE/7JEYag0ckybrUfnFGoEbmMww368MzwMMBI0FqWxt7MhTLlIv8+ehWctOYmXLpfdPlwK27yNhB68vbX8+Xx/4zV+54aZaqMVO6QLg32B2JEnFOtECbjGOkhRIBwEOyAjgLZEfIMhBxaopl7pPsAbpAJ04MBRE+TgNOjJMx0f0ATAGKZC78juv2+8uHU+Ru68t2rhdAke+Jbk/1c106VmCwDFKgqvaiQc10Da+6vekafsmJgrzPfNfKh5xo//ImeTtAg8TeTRkU/QDJQNCb8CPuVNEonxuktImwpzSYNdT16NQg2Qp3+RjnLp0afKXE/X5HetqWfGPIDXFMeZOMdXwndkhFZIIhWNAUkOj3fop1XAaA4k+xWMw/cMvn5jrcQaipqekRjUZneu2PsgHGGgEfQDsekRiRMDgEyg/gDIieiZao/1M31nV3zsO4AMzCeNPmRmqeqJSUPdEz65GlgIWKKB7Dy5RAav3aOeB60A/zf4wtTgTlD8576aWXVFkAY0zanlQ9zgp745y1ukfl51lJ2XzNSvn035vIPy6fJO9PbqFD1gyKuoRC9wHRP90JnSsiMrx/T7n8gV8kXdpVlUBo1SOyJUtBVgQcAu1m1KnJMMAjQTqd/2NMyJ4gGqT54YcfKiOFE8L9OxkT3frPB6DIbAjKN0GKqZPCvVO71wJ6npq7yWRDd+0/iPsxxVF4jZk2nUQJEyfZsaVBrkxEJWZY+1+jskHmBPjG6m6L/GwAUKTEvE5lo/zuAJLtk4rIEEfNHMjlBlnS28SpO7mm9022bCP8AfMDnCn0fVMlEm/ODPZk31+7wG9HVzS1AcQdkYrIwwaG9Q/Llp55TiHM9P3cKh2RdwymerKOG5NyV1Op9DEY/MUa0FPnNy6p43/TsEVebc/pdLrvoEGDyM4HKgH+uuXe1y233FI+b968p72AipytJz0S7WLkSP9DK6sR+tTnda86qXQMLY4ARoKIn2hf18NJG5OBINLW6XyugRFnfRRNNE4ZAoFESIMgcTwwmJQbtDE/+uijFRhvtRVKVaskUT9ARfAHmpeBf5PmZ5+/3ruBdF0mKgMemC5DR89Ue8C5oIsBZwenBucDWX+Vchl6aksZ4qIR0+WnmTA92qrUgvECe4Dh02BKonZKAVtuuaWqc3OflAdoe6RUo7kRiKLZEzpDnHpwPy0yLqZjjhkkhdMSlOTjpOB0OUl8KHloZk6/+3LX/v2el+k4cC66u8TvWji2OhvEOWTEKK35Fb4vdMD4GY7kd81iHndXc5n0SfrnHvAyBoXub2hzVM42QLvT2LxapwZxDh2+oblUzjHAG3xj2bJNwIZ1YCIqVYbOltuw/l1PRsK/OaDNk3bPIKVvskTuNAEoWras7tLls01lgsPkV4Cf06q5tAgBH+Vmt1iWdWxVVVV2drk8btL/NyKPxd2n1NXVXWnb9hCvpTDKAO+ow2LESe/Tv01WAdEAQyfnAT34ZAloVaR+72RC1OhtIny47ZlxQJYAQ8txdAIA4uM4ok3dEqdLCxi/p5/GlxHVh04K+ITdlpeHL1lHIod/pBwMnBRKDOAZMMZ6bxXRiDQ83UudS3vjKid9Ir/P865x3Xl2T1llhUVUsxePmC4/LnQQcEig3WXP7777rtonTgFOAGM+cRL0gCUMDAOscJgQ3dWgOybcjInuZ4CjZJoN4Jk4+SIK/YpQFiFNbiI4TU5AIoRROFR+xav27/fcTMdRRtLfHb9ruRkUySzRkeBX+G7zXTQZh+137WIcN6GxXHYwqP2/VJKSowIGKBKtErX6lb8tkZUq2xqTOfUVRux5g0oTcmPAgLj7m0vlGAMn5UsrLTu4wIWmdfs3S9JykCHTYC49/1pfIcsZOCn3R5NynmuqJ/TV0Fj7laqyZvl3wLwafq+dz3FM9fXCV1VVVUUsy0ePpOFF/WvScGH34bW1tUMsy/KEZPNSgxgHY4PRZdwtkTapYn6m8QbOFkYiJaIsDDeOhZdwPIhPUPzUqvVoaQB7GF4ieQwsGQWE7AMASGf9ntZHwJN4bfef1CyrdJ4nY97/Uw4b8oOK8DBQ1LwpXZD10NHrz/dsLmv2WGT45zekZNrshLz55Xx1T106lag/brnwnmkyZVZCOTGA1MAbIOzx1VdfVRgDMBDgCcAtgNdAX/xfz1jQ8xj0XrIBE/X1cSz0OGk/j5rsStDzAHB4yISYCJkfMiZawBMwxtqv0GJLNidIMWWC9AIXmg5kwqHm+720iGmdfseKRvnCoE7vRw+m5EVuQFw+7HnnlyXkvgKnQLrvbWZ9hXQ2MKzuSYir2ZZMNqz9H17eLON9Th308ywokIAHMZHh0aRc4XIQTEeHk4GYG7xdNbkNo2OZAOzFEVMMgCIb6xAHoba29nrLsgZ4aYKXI84BNXywA9BHQjVMOp7oF0cBAwdAkGgP4w1KnfZG0u+ffPJJRgWTgcARoHSB0cCQkMbF6LIeeAYiNy1kLjgG3AJGmPZHAIJgESZNmiRlrx8hXcobWkdI0x0ABuCZZ55R2Ae6GzCcYAs2X6NcPh/e1lA1J215+eO/svYNn3vnVGmQLsp5oQShSW7IUJAtgXIZJ0r3puM0wHtP/Zm0NuUHHBWyDOhWt2B6sSY6Fcf94Yj5FQZtsZcghTo8pRy/4gVQNCUWAsfBfI8gxZRYCKwJnSmFPA+YM73mmAR5X0GttZxtya+GBmmjykahlz9IATHvPxktskZlo8xx7OGwVIk8akiOs3VFo3wboKODSWWMsYm4wZ4bpC35xJB5MGiAYj74g0PKm2SCA6C4UyoirxrgKNDZKyUpcZIbQ0/9Z4dYRZMntuhYMGg6a6x/alnWy1VVVW0Z1vJbvt1ZHaKKeDw+T0Q8uVdxDkjzE8mR5if6IjKnNZFyAyBEbbjpZiAVjhEH0e+kVHbfGel2omsIkIjyEQCQRMk4BzgYTt57fQ0yErRYkn3QnpomWUqO3laiC98oPU/9TKbPSSrHAWNNpoH94rzoyP23B7aQlZZfBB6qb0rLq5+hCm/5YPJ8uWnMbOE48BQjRoxQhoNokmvwxQC0SDkFp4ef4eTgMHA/sEHiJODUMJcB0UyTlFoyIfspXfghtnHuGmPkpnMu9DvJPWm8hJ+1wIGAI9GSD/4Ah0rzSPi5pp9jTAGKtNsOG9Z24KnpJEoc6aUFf2BKZEN+aCWfU+78PB+O6WqL/GIIUOzsqlVfkohKbYG1f7/7zXRcPmyU7nHZJydL5HaD2v9My1ZgzSAliKme4xrLZVeDkpHX/oMm4gpSR3SgXXLJJV5L7hCLxT4I8lqtzkcxFnWuGY/HHxWR493XIYVOaQDDTL2WcgH1FfXL27WrchZ0yx61burjpJ+pxeMoaIZBr/0TddOaqIcSYRgB8MF1QGSu8QxEm7obgr+J5HQES10bQAjRuDZa9nPbirXQpZo1LyE9+n6ueAlwPHAsyDzQ6cDLHUzF6IHryuE7dG3d4t+NaZnw+SIHYdqsJjWsadLUBnnr67ZNSNpB6NOnj3JWdBmExdgXrS56RgU/oxxDRM29Y+xxtDS5lJ7VkIkgiZoWjo2J8KzokghK8gEogsfQszPYB46g6dTBoAGK+UzDxKFzYhZMAYp+Zx8E9awKXee1xnLZ0eBFnuCdEDCQ7O7mUjnRoG5P9oIshlPubyqTYwwAcZ9E0rJLwMA+0/tg/8t2ahAnImpGfYV0MUgmjypJySkB40FMu1p+s2xZ1/U8Ch2IFcS47EJ/N7KdTzcaga+HLJ0OQk1NTSQajcLs1Iamjhca0SdGmHQ/BhVOAqJcUv7UlSEpwoAjRIqkszmPGoyz5uxWlp7+CMAPY48zcP/996v0K+l/AH+6VosDQhaC9ei/J5KjtEFLoXYQ2EdrbXfMollTzFDo0fczmd8UUfdA6oe0O+2GGHQi+XVXLpXv7ty8dYsf/7hAxrz/l/z4W6OMfGNum61TAsBIgicgI0D5hPIIZQzKB26h1EJZg7Y2WPtow+TfADbZP7pkLZwCPQqbNfTIaOd66N50nkLQAEUcG42d8PtLBvjUSWZFaYqykF8pBkAxH6InN80zzizdGX6FjJvJYCq/6xbrOFOmu2dLUnJiwAZpZn2ldDa4QS/jblr771/WLA8HDIh7salMdjdwUj6KpGQ3B9FTPvwHd0aTcqmr9m+gSs9DfzSc4Hh9aVKuKsV1XCSUrShf5Ss3lCalxrVmvmsV47xMBEmRSKTbwIED5xTjmvlr08duampqKkpLS2fbts0MjlYhZU8WgMgVw8aQJAwaKX1dN+dgjDmfA2LEuJMK598Yezd6HrwCDgGTBQElQmREWx/OgZ42CL5BM+5xPvsgE7Hffvupdj0MM8YVI0uKntp+Ngdh5ZM+k9nzU+pYQIo4J9wXgEYdtb93/YYy449m6X1tSzeGFj2QCSPubD/UGAYAiIAOAdCRWvISKKiZhQAOgX0jODxE9twTOkGn6JbMCWBKr1IDoE0yFX4Fh0NPkvR7Tq7jKOvQDZJJeCbDhw9v8zHP2dm5Ylr7J2r3mqmea6/ZPqes5eRlyLUW328yZk6hVJCtJdW9Js6sLqN5XY/vGqU8ylHFEpxivxM4TRHzK1c2yPwA31SMI/qlvlJMKvdPlKTkVIeTsowt8rtBiQK9H1reJK8FTPQ0x5D9cN/yJnnXsYd8av+vlqRkeoB4EB7tyTmyOZeWNbfhKmBYlnvy4SmOttlK25IbDMs/H0bS8mXAjIrnBuhIYdNooXZLsQCKXCfAX7v2r55rrrlm+VQq9Yf7E8hwAIdpwQACkHNOLiRqpyQAXS34BFLmOsIEf6A5BPQaEB9hpHlJ8W8EHgFNVQtNMT/XjoWex0DGQlM3a4ZEMhYADjHAmRyEZMqW5U/4VCgbwLIIXoD7Ir2vHRHKE27hvrKNwqXkwhqULEhX52IVhOeB6/E3WRBKEejms88+U2ySCJE2zgIOEJ0absAi2Q6vL16xjEk+62J4aU3NJqa1fzI/TgbLfPblPse0i4LvDS2rzt8FvnMmTJB0uziZN9174nnjIBZTIBzTnCK5rmPqIARdF17JtuQHQybC7pUNUu94W56VjMqNWciJvHTgrv3n0pOfz011uWFlYxvjfnCqREYZAi397CvoY0y/A0cmS+QhA1xF0PtlPVts6WwwYyPXHjIwKF4bi8XMBrbkupDj88XiIMD4B5YAIYKmpECZAeOIUH8HdKV7+EmB4zzo6B/gHcdo4UVPihWGKVrliCqJLi+44AJlbOFLwHHQ6WjtHFDDhpYZwchyDaJvjqPGzn4Ym0z5gHbJ6Is7tl6TjoRlj/1E+BtDDBsjxpxzSDMzTVETJ3EvRO5+JuKRLtYZEyJid9TsfrZEh2RJiDhxoiiR6DZNjBVOE8eQSdDZCec0R/6tSzkG35sOPxSnkPvMJPkMRwIACu4kSDHtogDc6hyQhQPpxFX42Rt4nWzOkWnpxc813cdAjY6DmktGNpVKbwOmOyYGrh8wIM4Ute81oMl0IBN6AeQYZB/GZYmoXGUQJZOQZxKlMxtjukau51uMz/PBbpyejMrNhg5c0Hu/PZqUAQFlEHhPew1uSyaT69bU1LQMKiqCLBYHAWAfgD5kgw02UIA+HARSoKTMMahO0YOcICwinY7QjUDETgRIhIwBIZJHkaT5wROQGeDlC4AP4hlEz3OgvAFeAKcDI6oJZkhlw3vAi9tLACl2KovIVut0kncn/d36C6/LDJQlyHjgcOjpiprHwc/z0w4CmY5sHA96LRwTDAD3CUBSCz8jg0KECuEOREnoVQ+20qWGfCY4+rmPoI/BwdEOpNfa6MHJROjn+mRbwKEEJXyXs7Xdel2HUpCTwdJ0EqUfgCJMpE6Qa1D361zHjQfJdA1mCHQzqBOTRmb+QZDyQFOpHG3gpHwWScs/XODC55vKZC+T2r+Vlt0CnnxoCvZEi7AGOp2UQuv2QT6XTGt5DWTKdd0Hm8rkKIPnk2u9fD6/sCwhIwLivKCE7DVQrqSkZIUrr7yyLaAtn81mOKeoDkJNTU3naDQKeGIRY5CIal0kXUytVWcJMKJHHXVUxrG7vPwx+JwLmI9zebljOM4++2xlHEjLMtcA54DPYU/EUGtqSt3yx8+YFIkwldHZLul0EHBayHTwgmU9ui64vlfEff311yvMAK12OCTUhAEN6pZNzdSY69kRPdKuyHXJetDimEkAt4EfQOi04LroANAlpQS6PtALrTE4SJRyYNvTESqpZ7IvQQ8qynWPpp/jLGWrsbMeDh0lKb+CY8iI7yCFND+OiongIDg7cmhhBcviVygPuTkUnOfyu4IjXEzhu6b5OrJdB0Dc2IZSgWDIr4wvSctV5YuIsLzOO6l50WuM6Hh0afYLvF1vhsUANzDYtYfx9VGpNKjQvhVJtauZ+9VBpuOOSJVIdwNn63vLln6Vzq5/EVNdFLpnP+c/VWq3Kef8YKWNsRv9kiVS5ng+hyYs1drakfJmJC3fOjANI0ttMXhcbbZKxpxsu0v+TCaT3Wtqato+1ABvsqgOwplnnlm6xhpr0MWwnHvPRD5E6mQSiJoAyem5B173p4GNDC5y8twTHRMlw0FAKYK+dgw7ZQwMAC9bDCcvYdaA9IjBRTgWlALgSdDCyxReAw1ydAIhiQzpoNCi5x3gELAuABLSw8yF4DzKHeAYqPvzf1LguUTTI5NKZ71cSHZKH1ALM8mRyZVOACIZEfaIwcEJAE/BfihF8EXTFNZgF7xGh+baa0d+znckFwAOHZgQPeEg8pyDFLJfulXXz7raiXMee9999/k5tfUYMlfZsBl833PpzuiCHgfzO+NnRHcnW2R4Q8TArIpcVJmWeVneUtsmRc5pXkSX/H6JLXeVZ7YE7OHWBv/0ytzu2KgtT5ctWrPSFrnNcI1CdRzE+YPL0zLNwQy1SUrksiYzXQSxj2xr4ApeWJlu4yAEcU2+dwBLF5dw6dM65T9SGlvlBjMzoTsWi/Uo5j0V1UFg4/F4/FgReTzTTWC4/SK2KR1gjHkh0fqHV8ULlagYQ4gScTx4+dMzyouRlyf1WYB7OABE5hhVsgwMW3IKL1Midg10dDoIOBwA5bRoY861AYDh3NC6SbYC4h32huElO6EZ/9z3yb1zDdL+Gl/B+uAIiMiyMeNpLgQ96hp8gRN8yLqsyd+0iFK/4r7BWEAQhXFCL0SfugOimF+0QtbmeVBmyiawMJoI3yUwGkEKzqEJ3THP+YknnmjdAt8PymQmwvcyG46CzJKm6zZZ1+RYWorB+eSSFW2RGw0MK6/TU3O8VP/dQGS46DU2PmrLIw5j7t7TOmmRQY1mRhEnxcmud1DCkmMSRX915lKn0ecYqFNcujwgaclxjuyL0YJFOrhZRPp3SgeK1WCrD9SbPfOgb485HudV5u8gZAAoTozFYjsFvVfneh3yLY/H4zgIOAoFCYBDIhXd7ggwkWwCBkQzTOE8UG9lyiHlA7IJWjAy8ApQDtBjpZ0bgpqZ7gpa33hxOwff0NYHz4EWDXTEQaDkQPmCLAN1IpwFzdkAfTRZBIw3kTsGm9KDsz2vU7kliaRIImW3Oj84L2RYvASsBv3+XAcGRRyBTMOYKIlwTUoMoOV1KYK9UDZhH2Rggp6rUNCDdp2M4dWYFa91uSdT2meO57sSpIDkNxF4LpydLtTxTeZhcC3Ka9lApmBMyEYVU/hd8jMg6+ImS7ZO+X/lTI3YUlWROezjlf+g68V/Q3laPs/Cn7x5SuRfBlEzr/STXYY11hiRDfN/1xfzUWRcmyzMuS4DdXzCEpydJUl+t0QuLcCQet3LWimRWoNnXgx9/GaJDMjzvrB3lK/dUsz2Rn2tDvt2xONxcqdtCefzeBIYOiJ2QHnwJzh7zgEgksrHeGvBcN56662tk/F0XZ8Uuxv5TRoeBwS2KgCQznXANjijOzISRO/07mOo4T2As4CoFMMLoA7DSxpbcyLoPZVELMXIeOJuXeWInZZX5x9W94P6mLIAJRAnhbBbTfA60F2huxT4PFsWRte42Qs1cnAK9N/zN04QzhUZl1zC3uAOcDo3uc7J9TlffrAn2YRImwyJFmfUzc/gv9DtrLmupz8ncxLk5EMyB6bTMCmHOfEvdNXoaZx+7oPnkIu/goyWScskQFZAuyaCk+KHqvvRepPJByIfltgyrHyRJQZa0Du56JVFJeGAZNvI8Llouk3z9rioLX853nKXNkVkGwMn5euILfGKtt7ANY0RWTPdYa9Ok0eR8dhpEVsud93HQ/URiRoVfArfyuM8nyzyXtSWWQEH+wckLMmSVDK+KZ784cmIwKfhV2ZZtrwbXeTsTo7Y8onPXwfsktcAuv9XDgKcC/F4fKiIeJJJuxR9q4hAidcOoUc0TL0dg0jUTheDV/qFaIzsgo6cOY+2R93qSGQN+NApGEqAZkTXOBZE+lqI9kilatGcAnAVENEzf4GMBlEk6X/AjuAlKDNocOTOGy8jp+zTTZbrVCJlUQewqiElfYb9rKJ7IkruicyDl3AtukD0BECyB7kGMXEs94uhoMRCeYbMgxb06YWQdV8fB8yUcTHXLxC60rwVuY7lc5ydU089tc2hGHuvGemZ1qO8ksuw+tmL8xgwJ9tuu4hp08/5lJCcrKBECWSx/AqttM6slt/zsh1Hq6wJeRROygknnJDz0tT+72vw+UZcuBrG/jHHm71fs9XOIch14ZMrU9LksOWP1ZcYmUQAj0+UtjVqI+tLxAzmmGuXxf/8vyW23Ohwtrji44YOW6G7pExzVmV2wGmh1+iI83EM7q8vkUL8mAfL0vKSw2HItm/ej26SM8uyfq2qqlqt2Pfb4W5wPB6/ii7FLDe2aywWU8jBeDz+kYi0e2MSxZLOJ7WJsaAdkCiUiJ6XPxEmBpHPcCQwbCjYTbAEnsGZJaBWS2SOc0CETWSPswCIkiwAWAHAkBhaPZCJz7kuhpqXJU4Fhp4X/UcffaS4EeimwBnpsVxU7jmvPVvg11Mb5MqRv6o1cWzIEHAfXqKJkdgr6Wgnp0G2Lwt7Y48AXciekLLXc8XpdPAzJImsCDoMUujCAPvhV8jsAEh0CtkdE6InsCImlMx+9gamhe4YE3FPrgRLkA2o616bMlTQPA6m94EjS8kul6yTtuQ6w9r/6ZWpNtF/dVNEtjCI/tnT0Z0WGaTlbJERhk7KfaVpecnRFQFA8SHDNXLppiM+v6wiJVMcFm3HpMilzWYOW6H7fM+VESp0vcV1/vK2yN0FfgdqVSksN2qSDCuBK3+75N1YLLZzsXXQ4Q4CNzRkyJDutm0fYds2bxY6HEBqvZFMJkc4WzZqa2sPsixrrJcSiLKJnDFa+qWq+QtIo+MwEI0ztIm5ARpISCscDgOCE0CkrwV8AqOb9QRIwHwYVFoVcwkdBESDGC9twDDIlEJIG2OUMzkI97w8S17+rEGlabknInowFG7RQ6gordAK6dc50OuwP9LqgDV1mYDUPJ0gfgwTEwedPfu5dJLrc/bhBormOgfUvhsxT2bHz/712gA2tYOX63p+PwcMi/PoV3BincYdDAglKRMBDGs6nCrX+uzJD6GXXgfnzE8b5fppS641cBB4dR7lMO5c7+bGiKxukNqfGEnLDQ4Mw84pSy4xrEX3q0y1IRY6sdmS3q6yRi6dLgmfH+nS5VnNEdnXUa7piD2+GbXllrKlDLzhoZgzmyzZP1VI/kDkuMqU+IF/YLvIfLvFtu0bqqur2wMTAn6Qi8VBMLmHTFkEyIigYaa84EyzAhokM8DLE+4BjqPMsP322yvjRubBSa/rziIAUiSDAHMiBpnzkfQnV8sP74+Sh9+YI40Jkeuf+U39HGPDHnipkq0gA4DRJaoCuEXbm97TsTsvJyfs0a319hua0/Lqp/NkxPhFczZwXsAWeI0g1kaI9k3unayIKb++dhIwqLzcyY74FdM6f6514XEwHbUMhsTppIA5MW3jw0l0DnnKtU8/n0NKZSKk5clyaQH3kotW270+bZVOEK7J9b2Ozed5wJ7ohxwKYN82BsYd3MAYV726T8KsRfKp0rQs0rDIemlLdjLIQOCk9HYZ1nsaIkZET6DX6awIUnZNWtLNYMkZli3nuABytDfiMHWkxMpT8lXHJi2KcnsnJixxFqp6pUTWMvhuM7e3j+t7lWmjBKheZd1kMllaTP4DvZ+O/Ybk8bji8TiIKU+2ICJJwGtE3tpQMnQJ7gNq0lqxvMRI92O0qedgXDXgkEgaNLtuaeR8MgY4B6D+NQOjfForMvW51juwDqP60QIqJBJOJhJy9C7d5ZUvE6rkgMMA0JAMBk4ETskjl6wlP81sknkNaXngtdny+1/t63FkHWjZc49fxhgAVgF/QO06H+dAb557pV5OucKvYMz00Cu/5+Q6DvwGToqJoAOn0HrKoCcTgV+C7FFQAkBRE1b5WZPvDBkuJ/6A2r/fWQZcg2foZM70c91cx7AnE/wB6/Fd9MM6CrpSAAAgAElEQVRGOaa+XYo013YW++eAJK92ECQRM45siMqyBsb5/Uha6lzgwEJv7Kn6aFvmuRwLwg1R5yJ6eqyhRJbJl7Unzxs4tFPR+Hzy3FEwp1FuWNlAl09G0zLSZyald+/entN8OwKgiHaWeAeBTdbW1j5nWVZbyyCiIkkQ7noao37cRO2kPXUWAScApDWUzmQIIDxyshQ6swg4EjgQUBXT2qiZ8exPrhZr2ph2DoJ2LP6a/qW8ffcR8s/a71UXA+UK3UZIicFdpyWCJ1NBSYHIDXZDjD4Oj5tBkVkV4C24Fi2cZBngLtDZjXy+5uiBdf0KmAUTMKGfdXluzkFFuc7BEXQD4nD+ADr6FRwDnm2QQveC10juTNfg+WGInTwbdOP4AYrqNSm1BM1vgEN98MEH+1YNDo7bYfM6GYP6eMPS5yDcWJaSCY7on5mqo+qjYhIEn6Nq/wYeRQ7tQ0k72tDZeiGaljscBomX/guGa/j+UmQ48A/Llr7/DwCK7tvLR5ewcuJ8+pHFxX+g97ZUOAhXX331dpFI5AMvhTIkhj5wXvy6dophprxAu5YecEFNn4gZZwE8AvViHAUdSX7zzTcKGMjf1Ieh7sVoawbE1Mc1UjJ9ERmMziDol3zDN6Nkzru10vO0L1VJgS4B8A2AGxme5Expw+LoBJ1o0iWwBwAPqTnhtCgPzrIUHwLHM+cBwwA1Ms6Fn9qvl87IeOjJmH6+pBzDSGE6OYIUOj5wjvwKDpHb0cKJYyKnXwGcyPTDIIX2Ub9U2lwXR9VNj4yjayJkzwDnBikMOjNxdMDq+Omi2DNpyb86GBAXhF6uLUsJdXMtMPE9ZejoHBhw1EyZZHijiYsiclpFUn51lMz3SVodDlB8rDQtD7m6QYJ4Rot7jU1TlgxtMnseF1Sk5DsfTiPveLqjPOTBWCxWXHKThRddKhwE9lpXV3e6bdv3uJWlR0fTJ0rblxY9n4FoHFwAhoF6LaAuwIe0HpIa1SQydCjw0iaVr8GOpNWZX4DUv3O5dJrzmvq3bYtEDm8pMWgHITH5ETn0uP4y7pMFyqgzJZK+dsoMbpAJjgzdDwBQ1Nr19YoOmv0xCtpJsczeNWYCJ4GoDUeC+3KmqE1+UegayETClGkdInUnLbXJ9byOxUkxBdjRveJO5VMSMgEokrILcnolzxKQpLNtNJduoNJ2jjsHoOjmdsi1RtDPg+uZ6hIsh5P2PNOe905acnnADsKkiC3OhPVatmWU+s+lXz4/sjLZBqB4TrMlhyf9GwMmUQJyDFI2SVvyb0MHYT+Xk3JdU4n0MsQffBlheHGLYDQ2M6i5q+9WNC0vlywCKM6xRGYUhvMLUq15r3Vuc0QOMwStHtwpKX4KnHSWZZjtEjoI7idG50M6nf7d60mCJ6CbAUOL14VAZETrGxP2iLao3ZMtIFVOloB6OkaStDmcBgjDmGBb5KEQ5dEGiPEhyj1p+3o5aINZUl4akUTSlrIjP1bnMESI9chaOIW2RgCAXJ9rMhIaPALoebIeCMYFB4R9Yfx1OyZdBTgwlByIkPkMQiacCPYNgNKUOdC5N754ptTEMPIFKXBEmNTtuTbZIDo4tKBbKJP9Chki6vZOWmu/52Y6jmdk6uiAkXFiIMhWnX766UZbIbWfbcSz0WIiKgtj6jTiUDuZIDNd83pFThScNeDleoDL6MGxsKZBHTiXfjDrbsM6rj5qxH/wQYktV+YYNJVrH+7PL2yOyKEGBun7iC39K9o6KWQgcDT8yu+WLcc7HJ0tU5YMM4ya3dc6oTIpM/1vwe9WO/y4qqaI7GXw3Z4vthzuE6DIbBkvvpZIJNJt4MCBi5DtRbzrpeoRxeNx2jparKtDMOawJZK6d5IfUacnDUsrnXYQOI1WRj0OGa4EzQJHFEcKO1cqPRIRSbu6dXjBYixwUCgr0OqI4aAkgFBm0Cx5lDmIxomIORahA4JUtWYVpHyAw8A+2T/8DBhVMh6UPgrpfwcQZ4InQD9B1+1hbiQTYiL77rtvG34IHD8TciLugwxCkEyQPBOTTgzaTN3TGonEc7FJOvXE/oN22MAfuHkZcj0b8ArOSZSZjn/dcHpirusyfvkil9F7rb60IOIa9zXfck1whBxnnOF9vFCSakdOlOvecn3+inJS/L+2n4ym5HYXIA5Hp9xgjQvLE23oqw9JRuSSAjJCZCIOr0xkHcKVSw9LyudPNkSNulpuK00K0yr9CO8EgiC3dBRAkev6/6b5uaMiHzNs2LAV6uvrPT0nIm2ic6J1PZ2QsgIeGBkBUsDQ2vJyhSgHkBgG2ZnOx2BrAiKMCel+XoBErfoFTklBkyuRqqdc4Ww1ZH09TlmrQ4+0BrVPatgJDqREAgBROzasCVZClyVwfvQAIOpRtL1AxcyffAUHyaT2D2jT1Jjn2hv6N4mawY1g3J2C0wfew6+QVQq6EwMcBdkdv0LHDGydTiED5kWlmmnNYjwPgJYM8/IrZGP8jAlfwRZ5tiFY3sGno2m5uWxRVNzdFnk64GucW56ULxxAMqiVRzaaAS37ViTakBP51W2m42CjHGd4n3eVpuQRV+3/LUNHZ89OCXHmIM5pLpHjDLIY7vupF5F/dkq0KREVqpvFdb6pLk+sSAq0134kA0DxrVgstruf84M4ZqlyELjheDzeV0Qect886VZq9RhQ0v2auAjUP7V9OAQgLcLA07OO48DLnTSp7iV3Ogi6fZHrsLaTAhdHBKMPPsBLqHHr1i+wBhwLSFGnhDGMRJHasWDCIpgF/mDEePnSzcDnsGgBHiMDQeSP0ALJOfkIemHapYngUJlyDeRanzVNnBScPXc5gQyNxnHkuh6f06HCyGstOGV67LWf8zkGDgqnuFkdc60D86BzKijHm2I7IFSi3KSF8poTf5NrD3wH3K2hOC0mkyhfffXVdoyWXtc9JhmRCwqINlnzVUftmv+/XpJuAx7cPwm/waISxgq2JVsbpNC99n1qRVLgy9eyedqSOwwcBBKMu3XyU2nO9bQWfQ6Hww1NZk7KCRUJmeqo7lCeMAGMYsz375RoM10RBkZnqye6X0Tcnvt+GkXkWkfp5U+xfaP69eobpS1Z3bCk5P4e5d5p2yO4HtfV0iMtck7CPyaF8w6rTAj4i1xCd5v7PcE5tm3HqqurF00NzLVQgZ/72GqBVyjC6fF4HCxCO+g6L05S9tRSdaQI+l63wVG3pZ7PiFyyA0TnABFxEvQgIp1BcLag8QJ2DjPK5SBkumUcBN2dQClCUwST2dAodjAQrE9UCW4BxwCcAvV33aWBsXYOLzJRMSlx06mDOCmMwQ5KuA9To0jpx01GxFwJE4Cie/9gTkw6GqDY9jO1MJueiNSdMz3ofoCKuxCBYAld+BV+HyjJFSI4q06a8kxrnZkokVMS+eMPMFB7Gxra4xIRudDwxe3e/z6VCVngeDte1hyRIw0AitT++1YE2/f/z2REqgycLdybf7h092xDVFYyMKyQLPWuzH4fzxum2d26JiM01JER8vO9HNxcYjSXAyek0I6Sq5pKZD8DvIHXfeziysZkulfa5DPwnFwYi8Vu8aOjII5ZKh2E2traMyzLuttLAUR0GHtn2yORItE+Rp/yA59jhKlfE9HhKFAHJoNAmyFOgtNBgCmOlsj/a+9coOsqyj0+O8lJmlyoC/CBFhAELAqopTykyEvksdAKqKCggoCIKOVCpbdIdmras9MihcJVQQStF7kXERTKbeX9KkIF1D54lIeLhxdlUUVQKW3TnJx912+3k8yZM/sx55ycnCTzrdXVNnv2zOxvdvZ8833/7/9JyWog0AchB7AEcR9T4r54M9ioZFYCp2vuA9eAN+SCCy4YOCnTJ+WPKxUMHZ2qOK0vaJ1rKXhjbMCFjP21r31NrFq1amAaFMYiG6AaQfdZQHZyDDJcqi1WBWOiClDklKC+W5U8j+36QG5kom/NOjbvJlwjWYzUaza0iA9VcZp/0QvFF1I2KH3eyyKuguo+bftpG+sj66h7mL1PqhZeZrnppemfTfFoC9f+ai8Up2q6YzN/p4WBkEX/j1qGLPTn/EmuKK7O2WV7/NrSKFmQ6y8rupWmb/36oxF3RPZ3QL+ferQHZjR24UQBQ6eL7/tY29liFLYPaGhf+dPWYPBqugiCgJzDj+t9cDrDVU/dANVFwyZNVgGxbFWkIQBYceHChVGmAacr1UDghCfrcfNzUruSQgyg5PEU8CFV+3n/e3Ji+7e3iXsfXxtlJ/CRBusA+I6YPNgAhDlKjgMyMdRNiRi2La2v+rxsDibXVdxaEH7JEmu2WUs8NhhkNkJ8XNUlOshSYCppDBuAI/2QdWFDyqSPDUBRFsiS1/AosNlWKqTn2lSyZBzKTFdTzZIMG0iusoA9f7fOBlJXrgXSGW1P4r+vcsO6o7kooAWWAv/B0gpi/9fUOO//YUtw4XxtUyS/i5i5TZDiVA2Loa/Qe4pC/O+G6jAmp4wriKcyxuXl+LZr/IVxBYFXp1Kh0Ne9lu+APtbs1oJYnJF2Gw+45OBR+6knQJFxR6yBMGfOnMlNTU1lgXg2EdIIcWPzIUPUjQXjgQ0fzwHtAIfBVcCmDIAQ0CIneDAD4AcQTruScplTPh4J1UAAM4AXQmIH5IJu9W9NYvqx7xJbb9EiJmzTKt7a0C++fNlLohiK6PRF6IKUReZJSgvufzAUCBgG4rzMHYClJHwCR0EYolIhq4O8+6wC3gHPSi2FjIwkFD7GnFpMidCMThiieyBA+9pUhSSGb8tE6Pu+lVGC8YdBJwWyLn3e9DlhwmDVVmqGwBGRVfCqSNrwrPcQoiLEVqnwrptON3p/7wg9cZflR5V8+7XKAQmQ3cqMrHOMv3PRE+drbviPFrPrkz6Oau8Ta7zBzWS/fk9c1Wu3CR4bARQr35B0XRLzf3D9phTurPLt1oK4Q6lnQSbGI+vs+tirY2PicfWsjc0lHiLWfGcLDwXP8o22UhDkiuYwkScALMaVlutxYWu22H+cbnkHTivYmFZC/KGpWPIc08YVMgMzYwCK9/q+XwqCyvoyVNhuxBoIPG8QBLcJIcr8MJKCmbRCgIts6gADOYXyt+RKYEP//ve/H8VvOcVRyphsBXVDJO5MpgJYBYwCDA/CBfwbgByARGmAjMt5YvZJ7xbbvb1NtLV4ItdSqt4fLFkj7l61NirGxEbAfZzQmQNldqXIuLrsl9RGjAeE9EY9SyLr2oO/AKjX6AJHA8BMG8Hgk+tqc99QtsUQUquFpo0FKLVS8Gla37W8zjuYhUFxxsZm8SWLuD1znNK+sST2X+283xkKcbfFxsqWflD7xpIUPNz68zZm3xwAKE7qwKFcOzmu0CS6LebAyBg6YAikfKHPE9/uy27ovOaF4rB2O6AlxtmXLddc1VKvEOKAjo2JBsKlvS3iE1ViAWq3MuaeqnkHOBCaKOiLxeLnZ82adeNQz13tf0QbCPl8/gjP8+40KQwAICmKnOLY1DkxSqXzISa7gfiz3Iz5G/CeLKEMeAw2RsIJuLPVynvqeHgcJrasEKccPE68f0J7dOnNdf3i/iffLJnWn/++UXzzqpcjrwTeCaiOMWSoLfChD31ooAYDKWyc8qGCxrvAaV91a+OSxlVdidAPqZ2NLhhruM6zCohfDIRGEtzvrKuNwOOBh6jRBXKwLADF725sEZ+0iJnz3HvUeGOd19sspvZnR5pTffFj7RtLTnq2fcDTQDpbLWVaX7M40xJ4qety1bpWqzoSv20qijMsn2PZupwYX4VjGlDqvinvwE83tIh9LL1CtVyLLH1RpAuK60qEEgGmsG4Yhod3dXXdU0mfld4zog0EHjqfz1/red7JugLIXiCmD5nLkiWbaigQe08CpcFgSPohGw5uX3lS52PftGRf8eb6frHot2+In//mDXH78n9FGRPkwPcvmiyamwZVedeKf4oNfaXuxVn/8xfx9CvFKHTASRfQndwEeRlkTH7HHXeMqkkSIzbx4lfDoIgnQmIpKn1hhvo+vCYgeG2Ek7ptuqFN/5W0JWxEBoqN4FWyZbi06b8WbfG6ZTV8btmQExMtAIo3N/eXxP5rMV/i49QvyCoUFfqYdmpevq5VbCJczybzcwXx0xrjD37Y2yIOtjg1/66pKIjtS8FEesIyvAAWY3pb9k2OEMYKyzF0jV7X0i/mpYA7f7M+J7axDGNkW7natfr31oK4WytXnrV39gOMBINs5/v+piI9dZLsvzl1mpDtMD09PR8Jw3CF6T5wA2zChAFgKiSWDRJdxSSo92EcYCRwgiW2KzEMhAHGPzCIh1z5wjox6bynIwMB7IC3eJBghjoNi3+3CfsgBYPhitteE5/61KeiPHzS69RCOwBS2ORI02R8DAMTiIw52RZZUudByEUvEmSr71q3R7dqyATaa+LyNgIRlhoTxzsEuLOewrsAdkIKcXrSQ20EjgXAslIg1rLBi9iMlbUtHjiVnRSeDtIqs8gzKZvFE02lsebprX3iVTu4QOo0vtdbynSXxo+wqLlfXKAAFAGnPWoRomBCM1sL4tYKN4e4B3p8XatViedvtvaJexVA3PahJ+62xIOc1NYnllvgP8hWuUALg6TpW3/er7b1iXXKrvQXT5TgQWh/vQKKxCjZ3cIATH1hKmywXMObBK0FsbpCDArfMxMAu94ARVQx4g0EHiIIgh+RCaevLTUSSB9ks5D8A8S243LwSSu86qqrItAi4QhpSLzy8kviPSs+N9D9k/+3Xuw5bXVkIHS09It3/OGEgWtv9RbFvav+NfD/jX2hOP7iFyIAHcYKeAjS2iQCXBZj4hobG9fZyE0EQJwu1aqQtu8ytM+ELhpJvv71r0fltWspGFEmitJajqH3heFpw0WQZS5gU3Ra5iz31bINuByKONkKoLrl6/l8x8uuHZWFymznIttzin5mXfKcJrb3CnW/+WyhSVy0MXvcnrEOHrdRvFLh5mB6tnGhEE+k6FK/74RxfWJF0yAfPJ6cJRvsAIrVrg/G1e8t560/x+faNopVCUYKgMWf9do9V6XvT9x9G0Qo9qxhaCwGoHi57/vn1Xruaf2NCgNhwYIF7etiSOH5yEJEJKmTyR6gOE6cAFCU1RxBnYMDWPPH5eJdTw/aH9JAIJtgqzfuEe95/bqB7v7xVr948KlB/MF/Ll4j7nt8bUSNTA48ngEVzwDDI5s2mAc4D1RAoj5H0jA5mVYi4DCyVN6rpO9q7iGVJ86jU0m/YEjIHKg3YBFSExs2wyzPBlNkvQ0dfV6k4KoehCzzps0Pe3PiyASX+MteKA5ury2QL21u+/Z74oaEzYTtdBfNaDm7r1lM78sOUGQO76ux4VPJHPZu7xWvK1/3s/qaxQyL5/izF0ZgzWqEENOHq8QKpOnykP4msdAyo6GaZzLd+/OWftHZmj0UkzQ+oHiTh65YLO41a9Yso6e81s+j9jcqDAQeKAgCdv3rdWWRSoiRADhQbq648iVzod6emgNs1rTHo4BxsWbVL8W7/nTRQNNX/r5RTDjtiWiz/68ztxTNrw9WGLx9+T+jao/ITQ+9Lv576RuRx4DyvngxVIIamB05eZLVIGNOjC8ZE/W5wSZIDLgSwX1NzYdGEvAYNjUIssydOhekssbpMEsflbQhy0QlQKqkD/0eaKBtUh5rMabeB1wReqXSLOMs3tCaSJBEnP4HluQ4WcZNanN8oVlckpAJ8IIXikO1TfEnEWI+O8gRYN8Xxtkh/9Oe6we9OTHVAn9Afzt29JakJz4b4Siyf+5vaOmPQiXVCF6P8VVkev4pg5ECNuNoi/Wp5nni7v1hrl9clKtOV7JvGEph0NXF87xJnZ2dK4di/kl9Zn9j6j0zy/G6u7s7crncP8IwLPMHUtSHIk7E8AFYgS04/fTTjSMcd9xx0cYPVz1kRRgVvX+8SWz32sKB9vAYNB+7KV0wXHaWEH/bZCD0F0Px69//c+DfJ1/2kmjfcpuonDTkSXqRHkIGACLhwCfEgOUoeRBMk6sGoIgrHwxEIwmA0WqZCfXnob5DvYF+ZJWoRb9qoWOM02qZImsxj6lTp1bk4VnYm8zYB7PdfVqNhVrMN6mPr/Q1ic8lbCbPNIXifG1TvHlDzir2f1GuXzxU4+e6eGOLVXnmp72imKHgKIB12JIZLWouih9XYcDh9L/BUnf62l3b0i9uSsFyLNpgR/w0FO9YT64gfmuB1UiaQ1wFx0Kh0N7d3U0Zi7rKqDEQ0FoQBOcLIebrGsSlDz0xmwcgK05lZDhQAEgXUiA57ZNJAEgMQpkHr/qS+MgWg14C7jlx/vPihof+IR67fLLYZ6dNvfztXwXx22fWRv/+0oIXxZvri1ENA7wD8DGoqXiUW+bnkDNRvRGWR8ApcUJWBi5nJ04DTgNOA04Do1MD8PTgwdZlOACKzGFUGQg8UD6ff9nzvLIawDfddFPkQWDzx+WP0cCGbIp/s3GzgQMWYWP3RCguOXU7sWVHs+hobRJ7vLdN7Lxtu9jqpJViv/d3iAfmTozSHF9Y0yseeXatOP17f4rSHKFTZgxOtGoVQTIfAEsCoqQ2BBkWMCUmFR6COhovhBOnAacBpwGngdGpgRiA4krf9ycNxxOPOgOhp6fnS2EYDqIGFa1CrUv2AGmPgNg4lccxwnGyJx8fhkMwDIAc4+SLB28tvnrE28XNy94Q3//136JmpOoxHsx4enEl6HaxEnFL48kgnJFEPYwRg4FQKUHScLxYbkynAacBpwGngewaoGqvKTW6ra1tixkzZryVvafatRx1BgKqCYKAsn9lNHZsxhgFuPQh1sFYwJsgqyjqamWDp2ogYEI8AAAbybeXlMu0pw+1aA2x46eeeioCOJI1QCVGVTA6MD5gzAP5rhdjMi0tngM4HbIUx6ndq+F6chpwGnAacBqolwbYDwwkcWGhUNiiu7sbksm6y6g0EHp6et4dhuErJm1ymie8II0CwIGwGpqElBPCBJALwacAnmD//fcX/BwGRYTTPX8g+6HCHUYEGAeonkltVEMYcGwTbuA6WRJkSGAxphUZIoNTFouq+xviBnQacBpwGnAaGHINsA+Bk9NkTWdn57s9TymqMeQzGRxgVBoIPF4QBDcIIT6v61IWcoLamLLOnMrhHoBlURfCELIsMwRKS5cujVgWVQOBezAy+EMogkwFNn0ToVEQBBHmQHok4EXIQoQDuPHuu++u42vhhnIacBpwGnAaqKcGSIE3EOT9xff9MkxdveY1ag2EuXPnfrBYLD5lUiSGATn40PxymlcLOantyWjAQKB+AR4BGWLAcKBmghT4DfBKyLLPsM/pAiEQPAZ4FAAlEjbo7OyM0hzTpBr+g7S+3XWnAacBpwGngeHXQAxQ/Urf9785XLMbtQZCkhcBjADZDGohJ079pDbqBgIhAYCKl1xySVTVEZ4E3UB47rnnoqqMpE2CbTAx6uFdgEoZjm28C2AfspAEEQr57ne/O1zvhxvXacBpwGnAaWCINcCh8dxzzy0bZbjSG+VERrWBMG/evF36+/v/aFpbQgaQIJGdwOLAFgeZkCotLS0RWQ2pjgAWf/GLXwgKK6kGAvdR+hYaZDZ9U5El2LEgZqJGAGRFECNBEJSU1ijnQf/XXHPNEL+ernunAacBpwGngeHSAAdM1Sst5+EMhCFekXw+f5HneTP1YWA3ZFPnVM+Jns360ksvLSm4A10vBgKnf9w/1GjACFANBNgAOeVT48GU0vi2t70tojiGvVGCEc8///xExkR1roQ/CHM4cRoY7RqQgN44w1kF/GYxrnV9VXp/2ryqXZdK5yXHVedXzVxN8+BnSbqOGy9tHnH1V2zX1UZ3aXNCn3obm/7T3oOk8cl2M9CqP+37/gfT+h3K66Pag4DigiCYIIT4s0mJlF2GWZFNHtc/PAN4AGQ6IQuGEUGYAQAJGz2eANVAILwAuQV8CqbwAmBI6nsTJuAlIG0SazGrkAnBHydOA6NVA+omlOUjrm6MWTeUtI0uq25r1Y9pM7J9Ln0utZ6bqltT36bNlHv09cy6RlnXIKld3DwrmUMt9WkyVuWcwLpBs28wEB7wff/QWuil0j5GvYGw2UjYVwjxqK4k0gwp7cxCSaOAMMKNN94YNZUGAj8744wzIk/CtGnTBgwEQhQAHX/5y1+KY489VpxwwmDZZ+6HDAlSJNIjp0yZksiYGIbhjZ7nlXYghKim/kKlL4W7z2mgXhqo9iOc5f4sber1vLZGgM28hvM55diNMgf0VolRYKPvattKXeFl5iBpkG/7vj9YJbDaASu4f0wYCN3d3a0tLS1vCCE6dB0BLKQ88GOPPSb22WefKBtB4gh4wfAa3HnnnRH2AKAi4QHpQSBMQeYCIQbaUCVSFYyPCRMmRCV7IU0CdwAxkkGo0kUlpTJPB6mVTpwGRqMGCMup9UkqeUZ+R+EmSQpLQI5WS5py0pwnT55c8QYEGJrQ4VDIcGzQtRizFn2o+gRXRlVE3q9Kq6zWek6m9Z40aVIUet5vv/3KLvf19b1t9uzZ/xqK9yRrn2PCQEAZPT09h4dheJeuGD5SnNKpoohHgQ/NokWLxHXXXRf9m00f4+HII4+MKJPBIuASwkiAO4HQAWmQsDM++eSTA91TgwGvAumRoFO32267MhCkbFwsFj/a1NTEF2NovhpZ3wbXzmmgjhrAqP7DHzZVRa1GzjrrLLHVVlsZuzBheGrx4SfUCNmZrZDhtGTJkooqZNqONVLa12I9TM8K6O+ll15qGDWYnpPDIxUcTTLcAEXmNGYMBB42n8//yfO8HfTFILuAMIAs5ESthlNOOSVqhoEAkyEbvC5U3sK4gNxCzV7g/2RJcNLgIwKJEp4HXEkGuc33/U/OnTt3m2KxuEYIkb34fMO8+m4iTgN2GoA7BPBtHFjNpjfSlT/84Q8bb+F3+sUXX7TpLlNbspEoHW8jHEauvPLK6HvipD4aqMb4qMGzY7wAABV9SURBVOberE/HwTSm5P2tvu8fm7WfoWo31gyET3met9ikTDZ6MAds5ngHsPTJSiC0gLsKLwIYBCiXMQCo9jhr1qyoK3AIeBUotqG6OqdOnRqdFg466KCIhtkkuVxu/MyZM9/cbMBc7XneGUO12K5fp4FG0QDAXxPbqJzf8ccfXzZVKrKaBCP8tNNOK/ndkx93NmQyiEwC9z2/60kSN2aSURLXH/VXVC+jqR3fj3333Tc6kBhAayW3PPTQQxHIOk6oG/O+970vdckJvxBKTRIyuj7zmc+UNOGbqHPHmPrAmFIJ4XD546U1CVgtwrJpAmaMsO3jjz+e1tR43fR+4dHiWy5FNxAAslPptxIBp2YyhtHrzJllSXYMcY3v++YaAJVMoMJ7xpSBgI56enqWhWG4v64vXg6yBQghJAEDebn5xWVhk0SWcsZrgDFhkjAMv9rV1VXym5nP51d6nmc+DlW4yO42p4FG0sCKFSsiVlJV1I8xhjgbvi6ctvR4Mvfx+0iGkAmHAG6Ik7tJTPTqajs8izrwWF63NRCYZ1JFVp4NrhXTc8etHbTvHGJ0gcIdz0lajRdd/7jk4V0x6ZFvGFlaqmAckJWVJBDLcahShTFMOf+0wXtrAy7EG8MYGEtZZc899xSPPPJIWXNqIYBJixPWhnezEqEOj0k4WMbsD85AqETR1d4zb968I/r7++809QOeAApmwIcAD/mjW32AEtesWRMVZ8J1SQyVOCeES7z4XFeFD0yMK3KN7/vbmuYRBMFlQohjhBA7Vfu87n6ngUbSACc/cDmAgRE9JY5NLQ7Ax+nNxFJKP+edd16JB49+GSuOhZQPNpijJCFz6frrrzc2sQ0xwN566623lvUln58Ni43LRvbee2+xevXqkg0VLAZxd0jebAWPzq677mq8DaOOeLkqnLY5VevfPNkGQDZp4PqGz1pdffXVZeNg6PH9tZXXXnttoHhelnsJJ5u+yRhokOLFCd/63XbbLcsQJW14z3bayfwppzhTTLFAZyBYa7pGNwRBcIUQ4ht6d3gQ8CRUI+ovAy9F3InA87yjOzs7S49R1Qzs7nUaaBANdHd3N7W0tPSbpsNpEt4RxBTj5fePE7BJKHJ27733DlxS7wczxIak/v4lVUEldCBLt+tjyUMBff7qV78yzuXkk0824pLilgA2VA4QJsFTccghh5RdSsNnbLnllmUHGA4qunFg2sDVkvXqwHEnXUIjpk2OsvY6poJ5g78CZ0J4VhfG0Nee/++yyy5lIQOTDkweBsK+afpiHr7vR15ik8yfP3/AS2J6N/Fu6KLPxTQHvGVqSEPtmxAQ5HsGudz3/fOG+1d6zIUYUHhSOWhSE7FIiU0S28TC488222wTYQ/AGfALqMcHeVFk6IHwg/xjepk9z/tZZ2fnJhSkE6eBUaaBIAiwALbXHwuvAWXL4z7kEydOjDxycS5mXMl33VWWiBQNAxJcPeEyhhzPpF5+nxmHwm1ghaRAm056HAJ2Ie50TOaSzSkdr0lcSAOPpZoRQWoeoOe01Ey+U1J4XgwkPJuqwMPCXCXPi7zG9wnD5MADDyxpH2cg4C0whVXRlwnATYgV74IuPBO6Nwmnek73qrz3ve8t+T/fWIzMAw44YODnrBEhGp5RvjtxAEOMNJPRQmfoLg7synVDKeYyDAbvsL5uhLhUbIP6QDwHoSJdOjo6OqZPn77JzTaMMiYNBPQdR8Fcj7Voa2vbYsaMGeX1pesxuBvDaWAINRAEwXFCiJv1Ifh4sxmbTmF8zDHIiWnHZPpE3VHynNRhk8BWSghC3RjYODgVJp0sAQ4edthhA12+/vrrxo1NHRMCNDKYbATXtb5Jy7nqhgMbK/Owlb322quMdZVNTYZz9P4Ie6hYAHALcc+VhNcAVKgCQUHlo3eTACqEtwLRN3GZLi7vY1Olbo0uhGo+8YlPDPwYj9QHPvCBVHVhLOH5SZI4A8l0DwYZQElVbO7nPgiSTO98I6Q4Mr8xayAEQYB5u8nXWUfxPO+ozs7O6uIYdZyvG8ppIKsGuru7t25pafm7qX1cDF62BUwIn4EUPrwYFJy8s3yA2UhOPfXUsqEBlSXFtfUTJRskG2WSfPaznxWcFLMK48eB2yDIue+++wa6Avc0fvz4rF2XtGPzYxOUAqCTk3XcaVrf9PGc6BsefcHxwuYdJzyDzM5g87/nnnti2wKqNJ2YuQGPiJrtAH5kzpw5ZX3hYVHBkXGYBvVGjC7wGqrnl7DOAw88UNI/71HcaV+fCCnwJ5544sCPk7AGpjUgPAPOxSD3+77/8YpeghrfNGYNBPSYz+e/43leKTS3xgrWurvE931zSsPQjut6dxoYcg0EQQDE+2x9ILwGbPZsfqbwgekk9pWvfCVy1VIgTRVTJgPX6VdPWeT/oMTjTuPco3s0kk6A8iNPfJ17AQQSQwa4lkSatHjx4lhwJZuW6ka///77o4qvSNzGHreQgBPZdKSAezCVEOY6DH468p/nePnll8u6jwsvyIaEhUjlZhMGzKhu8npnnJhJcdWFtSJcocott9xSlqXBhrzHHnsMNLvttttK4vtxuoEtd4cdBilwMAx4xwjvqEaDbmwkrQHhLjXUwVrCxptVCG2ZgKlhGP5HV1eX2QWTtfMatRvTBsJmCmZO8+UIoRopeHM3rwohFvq+31nbbl1vTgONoYF58+ZN6u/vX26ajcqYaPrgcuKUbmfuX7lyZfThJZVQ1kWR/eJaVuPUMnxgkxon+6K8OxVcpXCiJnxgK4zNfAFXmrgLOAljHOnCfWyKGDFSqB579tllNlbqlEwZAHhk4irBggVRT6+EPzAu9Pg5OAvmqD4XXDE6jgAjj7nDOCvl5ptvLuNOiDPA0F8cviTu4cEinHnmmam6AYwKD4EUQi6sM4YeGTPgyqSQtRJzqi8bRw/R8J7rXBFxk8NAY14myeVyu82cOfPZ1AerQ4MxbSBI/ebz+QeFEB/wPO/tKTonB0eyrvDv0pxG7eYwDK9ubW29debMmY5CuQ4vsxti+DQQBAF+8rLKcyDZr7322tgKf3xQoTVXhRM0J2lc3g8//HDJNZsTnq4N3TihbwlIpC2n37gMiiTNyn452TJ3dTMFoEb4BNHHJ6UT3IXansqweljFNLbelwl/kATq1OPxcaENAIjPPlu6V/GMeEVUowzDQt1oSUfFgwHoW92YwUSYjETTe5DlbU5LTcQgIX1TBZQS7oE3AyFlHfC5FAxSGapK8+DoIZo4D4z6HMwDIixT1srmdlf5vj8Ya8uihCFs4wyEIVSu69ppYCxoIJ/Pz/E8r8v0rJwq49j+QMXr8V6VnAi0uZ4aOH36dPGjH/3ISq1xXgaYAHffffeBvh599NGoNHs1Qsqayl4IeA82R5MQWsAtrQqpizqYMct84FtB16okpf7pWQYQBJny8Ult1Nkf2XQxZDo7zQ5RCS5k3VU8BayyMNOaJAiCiMtCCgZLb29vWVNCEepmT5skQiiMT/VUD3BVBQXqBkJaJoOckIlHI847giGF8USGBIZBEkNmU1PTxAsvvPC5LGtejzbOQKiHlt0YTgOjWANBEOBNGzyGbX7WZcuWlYHAuCRPZsTHe3p6SjSD+1plPtRR7HfccYcAJFiJ6CdCNm/VvU9MOo5aOW48vU/i7+pGpxeLUtsffvjhZZTDOkdA0ilWvfatb32rDNCXhKfQT7/gKUyMk6yPimOQLIhJYEQMH9aRk7tqIIAnociVSfS1ABR5xRXQ1ZQK/ekGZ9xzclLHE6UKnA1wRUjZdtttyyi6pWGVFLbSuSsghCJsYBKyPGRtn6T3NgzDQ7u6ukpRk5W86DW8xxkINVSm68ppYKxpIAiCPPwz+nOzeRHnjkuxw9UMQCyNslzvV54A09y/WdZB3ySzku2k9a1WesSgody0SXRQITF7qsBWIoRyAHBKUUl/9P70zAk8FnguTKIDFEnXxK1v8v5wv/TwYHAQPlHXF9e9jinhHhNY9KijjipL2aQtBpjK/8DP4gwEwhxZalHoz53Fi/P8888LjAsphFxiCI+ijJc0o7ZYLJ5RLBYXdnd3FytZ/6G6xxkIQ6VZ16/TwBjQQBAEgASm6I8KA6Eeu6aN3NiTGBPT1Gaba27qT/dexBH+pM3FdF1FpycRJOkGCi57jKpKRO9L4jhMfZEdoBaPi+MRMG3GsBBKXAGnYjV8osbvAQHqVTTjNl64LfQaCNBIk3mgCoYEHgE1U4CN2kSbDHOhKVsii26pvKumi+r34HVCZ6p3BOpo1XOk3gNwc/LkybFDh2E4vaurC3r9hhNnIDTckrgJOQ2MHA0EQRDqs8VVfdlll5Ug99UTvwmQdvHFFxsfGk+DTlcO+vvBB8EVD8q8efPEOeecM/CDuDoBMpWOj7zqQmZ+8AZw384771zGoKhvwJABAb40iVqnIa7wmymtj7g7ADpO9Gw+PDsbLSmU/MHDQc0GldhJjm8iMmLz1jEegDB1IGYc/gDiKZXamrHAaIDVQNCfGqJRQxQ6WRJufTIdTKITJNHGFO4wVd5kDfRyyegO74XanucgHTNufPXnaVgU1gHsgioQNUkKcX0MvCoqgFO5vtrzvPmdnZ3leZ8N8glwBkKDLISbhtPASNSAyUBQ0xpNz6Tn/hNqiCtUBDJc/7BzgtX59EljU9PGyOfXC+uQxodbP0lMTIqmOXzxi1+MLVmMK11iJ3D16xUokzb1tHcgjkcgrTJlXL9J5D5xGIm0OXIdcigVjLdw4UIxbdq0gVtVgzELw6FpzLhqkoylgyFx88cVAdPBlElkTswjDrhpmqOOSVHa/NT3/fKSpVmUW8c2zkCoo7LdUE4Do00DJgMB70Ec9oBrKlqe0zKgtjgyIwr4rFq1qkRtnIz1Ermc+lQCHVPKIiQ7sN8lCW5pNmFVqPOgews42aubssyUYFNkbhJpD66AjAGTmEoop70fceEVNt+kSoSmfjEO8AjIUICO69C5ErLQUDOOCZ9AlgJeHpPoAMU0HXAdUCAZASrgkJ9DHQ0/gSqEu5IolvUqjeA59MqVan9Qfk+ZMhhVA2Oi17SQ7Xl/TSXDwzA8t6urq5QmNMuD17mNMxDqrHA3nNPAaNKAyUCAfMiUosamSbxZde1zqpPERybgIS5svf4CJz6dBVCtlod+cSnrRgcnP2LbSUIWgz4PGAJxt6tiynbgPlLuVMpoPBk6z4PaDwYFG4xO0IThBGEUMXeMH4yktFLIgBRhCEwje2JTPeaYY6JNFtGfV/5f1yl1FEy4El2fYA0AGapCaMTE0kgbfZy49WFeGFt62qXano1aBQ8Stlm0aFFi6iieEhXgSX9J2Sz6fNEJujEJgFBTSCgMw092dXXd1ujfAmcgNPoKufk5DTSwBkwGArTKbEKVsBs28KNmmhqbjQqiw5OC16Qaxkd14Fpkb2R6kAZuVKkOKr2vGv1j3Kp1I2RfhUIh193dnUi01whL4AyERlgFNwengRGqAZOBQAzXlja30sevxUe/0rFN9+HK1ssfUzEy6dRrO36jPbPt/IeifZpO0q7XYk76GHiHyIgwlQVvlGqNac/tDIQ0DbnrTgNOA7EaMBkIfCg5Neu8/iNJjZVsKADSyKTQuR3oC2BlpUDCJL1VMk+9v1r0MZLWtl5zxZOER8kg3/R930yvWa/JZRzHGQgZFeWaOQ04DZRrIJ/PP+B53sH6FeLnt99++4BrfbTrjnAKRX5ITTQJIRcKJ6XhCEaangBNwk4oQygjbf5DNV9SLclmMYFKG5ExMU4PzkAYqjfE9es0MAY0kM/nP+153q2mRwVcB2jOVMkwTjUA3Ijbw5g4UoR8ewojwZ+QJBgHZDWAkq+FoKtaGRxUNgQYGZeSaZovgExYIyl6BQixkhoStdADfWT1guDdgcdAz36o1TzoB72cdNJJJURKSv8F3/cHy3fWcuAh6MsZCEOgVNel08BY0kA+n3/M87x9TM8MLS5FesgoiAs5cPpms4M7AHQ9mx7UtfD5x6VLcg+nMzY0U8YEc2EzoCwxxgYbQlZDhZgxH3n65j7Txsf4FJOC/AfjwBRnjnsHKAi0dOnSqIyyiRAo7j7GIIzBc0PMQ2YFCHpqXqBfm74Yg/5A7++6667i0EMPjfQDyyI1FAiHmLwCxNUpdoQxpLIxcg/8F8wjbj3ISEGvpAhSKIt3I65t0u+P3OTpiywB0hRfffVVsXbt2lhPBkRFtP/0pz8dzZ9aChAb8a7FeT8wmriHjAwybci4SdILXoMddthBHH300bEFmQqFws7d3d0vjJTvgzMQRspKuXk6DTSoBubOnbtfsVh8pEGn19DTwvhgo2Sj4t94I6QRYEspzf0YVfQV5wnAKOAEjeFkY9Q0tBJHzuTe8H1/65EzXSGcgTCSVsvN1WmgQTWQz+fP8jxvRACvGlSFblqjWANhGP554sSJO55wwgn9I+kxnYEwklbLzdVpoIE10NPTc1oYhj9p4CnWbWp9fX3bt7e3v1koFP5Rt0HdQI2qgZUdHR1Tpk+fvr5RJxg3L2cgjLQVc/N1GmhgDcyePfuw5ubmJUKIcQ08zSGbWhiGzwshjuzq6uJvsWDBgvb169dPDcPwF0M2qOu4kTXw61wud+LMmTPfbORJOgNhJK6Om7PTwAjVQBAEZwshLhBCTBihj2A1bc/z3grDsNv3/UvibgyC4EIhRI9Vx43f+BohxOeFEOMbf6p1neEtQojLfd8vLTta1ylUP5jzIFSvQ9eD04DTQIwG5syZs39TU9PpWRXU3Nw8o1AobOt53rey3tMA7X7s+35mkOZmvMZkIUSrEGLXlPmvJotPa9MfhuEtXV1dd+bz+XM9z9t98wa9vaUu/iaE+CvFF33fn/6d73xn+1wu5wshmtL6CcPwr11dXRg8keTz+SM8zzsh7b7N11cKIT6SsW1Ss+cKhcJtLS0t52btq1gsXtHW1ramr69vTtZ7wjB82PO8AzK2LxYKhXO6u7s3ZGzf0M2cgdDQy+Mm5zTgNOA04DTgNDA8GnAGwvDo3Y3qNOA04DTgNOA00NAacAZCQy+Pm5zTgNOA04DTgNPA8GjAGQjDo3c3qtOA04DTgNOA00BDa8AZCA29PG5yTgNOA04DTgNOA8OjAWcgDI/e3ahOA04DTgNOA04DDa0BZyA09PK4yTkNOA04DTgNOA0MjwacgTA8enejOg04DTgNOA04DTS0BpyB0NDL4ybnNOA04DTgNOA0MDwacAbC8Ojdjeo04DTgNOA04DTQ0BpwBkJDL4+bnNOA04DTgNOA08DwaMAZCMOjdzeq04DTgNOA04DTQENrwBkIDb08bnJOA04DTgNOA04Dw6OB/wdvlOP7k3C6+gAAAABJRU5ErkJggg==;" vertex="1" parent="2">
          <mxGeometry width="290.51" height="100" as="geometry" />
        </mxCell>
        <mxCell id="bHijceM4AnhrFQvCDv7R-193" style="rounded=0;comic=0;html=1;exitX=1.011;exitY=0.504;startArrow=classic;startFill=1;endArrow=classic;endFill=1;jettySize=auto;orthogonalLoop=1;strokeColor=#4378BB;strokeWidth=2;fontFamily=Helvetica;fontSize=19;fontColor=#CC99FF;endSize=4;startSize=4;exitDx=0;exitDy=0;entryX=0;entryY=0.5;entryDx=0;entryDy=0;exitPerimeter=0;" edge="1" parent="2" source="bHijceM4AnhrFQvCDv7R-122" target="35">
          <mxGeometry relative="1" as="geometry">
            <mxPoint x="480" y="300" as="targetPoint" />
            <mxPoint x="470" y="320" as="sourcePoint" />
          </mxGeometry>
        </mxCell>
      </root>
    </mxGraphModel>
  </diagram>
</mxfile>
